<svg width="402" height="402" viewBox="0 0 402 402" fill="none" xmlns="http://www.w3.org/2000/svg">
<rect width="402" height="402" fill="#00E5FF"/>
<path d="M384.927 58.3086L385.001 61.8418L381.543 61.832L381.569 65.3438L377.991 65.3574L378.049 72.6182L374.371 72.6055L374.432 76.1689L370.891 76.1797L370.894 79.873L367.302 79.7979C367.234 82.0687 367.298 84.5423 367.314 86.8291L363.611 86.8174L363.63 90.4385L360.007 90.4336C360.003 91.5928 360.031 92.8024 360.043 93.9658L356.538 94.001L356.534 101.021L352.817 101.037V104.614L349.418 104.669L349.444 111.889L345.889 111.916C345.866 114.249 345.819 116.582 345.751 118.914C344.706 118.851 343.276 118.911 342.204 118.925L342.215 126.104L338.694 126.093L338.682 136.788C337.581 136.7 336.255 136.702 335.135 136.673L335.112 154.527L338.699 154.523L338.675 158.028L342.239 158.06C342.182 161.617 342.229 165.289 342.229 168.856L338.682 168.868L338.672 175.917L335.116 175.932L335.159 183.234L331.564 183.24L331.586 186.752L328.024 186.766L327.909 190.285L324.352 190.312L324.367 193.877L317.211 193.914L317.032 197.485C315.945 197.427 314.692 197.431 313.588 197.407L313.597 200.99L310.048 200.943C310.142 205.664 310.124 210.467 310.152 215.195L313.657 215.197C313.687 220.001 313.663 224.804 313.586 229.607L317.055 229.565C317.25 233.011 317.206 236.711 317.222 240.186L320.836 240.19C320.784 243.782 320.779 247.377 320.817 250.969L324.474 250.987C324.371 254.419 324.418 258.11 324.399 261.561L328.074 261.577L328.076 272.28L331.595 272.287C331.513 277.032 331.494 281.776 331.539 286.521L335.159 286.598L335.137 297.353L338.684 297.383L338.675 308.024L342.232 307.987L342.194 322.388L345.753 322.438C345.817 325.921 345.76 329.534 345.749 333.029L349.366 333.043L349.295 343.676L353.009 343.685L353.001 354.562L349.265 354.55L349.279 358.109C345.809 358.196 342.156 358.142 338.672 358.142L338.687 361.678C322.087 361.72 305.198 361.842 288.617 361.645L288.633 358.121L277.935 358.156L277.933 354.66C275.654 354.514 273.2 354.522 270.907 354.486L270.876 350.901L263.747 350.935L263.709 347.201L260.199 347.213L260.22 343.645L256.645 343.652L256.61 315.199L252.992 315.194C253.255 301.111 253.046 286.424 253.044 272.294L249.584 272.322C249.534 274.658 249.541 277.036 249.522 279.374C248.348 279.351 247.092 279.384 245.912 279.394L245.972 283.101L238.885 283.121L238.916 286.614L235.215 286.649L235.284 290.082L231.615 290.152L231.67 293.766L224.52 293.789L224.537 297.346C222.142 297.275 219.745 297.258 217.35 297.301L217.355 300.829C215.005 300.815 212.603 300.86 210.249 300.879L210.235 304.449C205.488 304.423 200.743 304.423 195.997 304.449L196.044 307.994L153.243 307.973L153.198 304.476L145.86 304.454L145.846 300.949C143.595 300.874 141.216 300.888 138.954 300.864L138.894 297.391L135.398 297.322L135.375 293.789L131.726 293.786L131.706 290.197C129.285 290.096 127.049 290.103 124.633 290.119L124.668 293.751L117.568 293.811L117.573 297.371L113.986 297.346L114.008 300.862L110.289 300.907L110.324 304.499L106.743 304.487L106.732 308.024L99.5611 307.952L99.6109 311.509L96.0552 311.48L96.0953 315.221L81.9449 315.197L81.899 311.647L85.2701 311.576L85.2925 307.954L88.9263 307.982L88.9488 304.52L92.5484 304.494L92.5298 297.364L96.0777 297.306L96.1109 293.643L99.6275 293.599L99.7095 286.497L103.185 286.504L103.181 282.954L106.75 282.934L106.777 275.834L110.262 275.849C110.359 273.576 110.326 271.09 110.34 268.801L113.815 268.787V261.539L117.459 261.527C117.404 259.373 117.513 256.821 117.552 254.636L121.106 254.669C121.14 251.044 121.102 247.367 121.096 243.737L124.625 243.702L124.644 236.624L128.161 236.617C128.208 233.195 127.939 225.361 128.394 222.414C128.971 222.254 128.943 222.252 129.439 221.906C130.015 221.041 129.841 220.097 129.822 218.999L124.665 218.984L124.644 222.466C122.314 222.426 119.886 222.478 117.548 222.492L117.588 233.127L110.355 233.119C110.389 234.253 110.359 235.495 110.355 236.636L106.702 236.624L106.71 240.23C104.374 240.238 102.039 240.263 99.7037 240.308L99.7105 251.107C98.5851 251.046 97.3105 251.072 96.1714 251.067L96.2115 265.277L92.4878 265.239C92.5596 275.947 92.553 286.655 92.4693 297.362C89.1378 297.228 85.2364 297.319 81.8619 297.314L81.8824 300.911C73.6746 300.895 64.9447 300.733 56.7779 300.947C55.6291 300.914 54.403 300.862 53.2603 300.853L53.2974 304.24C51.434 304.224 44.8119 304.064 43.2144 304.355C41.3846 304.511 37.3722 304.411 35.3843 304.416L35.313 300.891C34.1511 300.86 32.9203 300.867 31.7525 300.857L31.7418 304.424L21.0425 304.402L21.1177 300.864L17.65 300.876C17.5371 291.413 17.6248 281.71 17.6168 272.23C18.7141 272.289 19.9513 272.29 21.0621 272.315C21.2705 263.064 21.1209 253.189 21.1392 243.876L24.7056 243.896C24.6619 234.35 24.6825 224.802 24.7681 215.257L28.274 215.282L28.2681 193.879L31.7437 193.872C31.9133 189.179 31.7906 184.297 31.7388 179.586L35.2652 179.553L35.3052 172.414L38.9693 172.386L39.0044 168.886L42.4273 168.828L42.4546 165.295C53.0888 165.15 64.0399 165.261 74.6802 165.307L74.7173 161.82C90.4694 161.654 106.223 161.63 121.975 161.748C131.211 161.785 140.322 161.624 149.565 161.795L149.546 165.27C154.335 165.21 159.123 165.178 163.912 165.172L163.925 168.817C167.418 168.901 171.121 168.849 174.629 168.858L174.67 172.321L181.808 172.352L181.713 175.903L185.371 175.943L185.294 179.475C186.489 179.491 187.684 179.498 188.879 179.496L188.842 183.046C190.079 183.064 191.316 183.072 192.552 183.069L192.425 186.696L195.945 186.762L195.915 190.372L199.575 190.356L199.56 197.389H203.11C203.056 198.555 203.051 199.838 203.023 201.014L224.513 201.019C224.447 202.176 224.522 203.408 224.562 204.572C227.97 204.666 231.767 204.551 235.204 204.516L235.253 208.063L242.325 208.157L242.289 211.646L246.001 211.677L246.029 215.162L249.635 215.188L249.527 218.896L253.119 218.936C253.083 221.236 253.154 223.546 253.206 225.847L256.59 225.887C256.579 228.293 256.582 230.696 256.598 233.103L260.152 233.082C260.227 225.962 260.236 218.841 260.182 211.721L256.567 211.724L256.6 204.523L253.07 204.575L253.044 200.915L238.784 200.943L238.707 197.436C235.185 197.344 231.662 197.325 228.138 197.382L228.093 193.851L224.421 193.886L224.459 190.316L217.294 190.438L217.275 186.76C214.937 186.712 212.566 186.711 210.223 186.689L210.18 183.267L206.57 183.288L206.638 179.521L203.124 179.453L203.173 175.976L199.518 175.965L199.52 172.423L195.98 172.406L196.006 165.326L192.433 165.312L192.416 158.245L188.803 158.254C188.886 154.717 188.817 151.019 188.798 147.469L185.407 147.443L185.39 150.998L181.748 150.978L181.747 154.595C179.384 154.614 177.022 154.651 174.66 154.708L174.693 158.261L142.278 158.254L142.29 154.734C140.06 154.564 137.666 154.598 135.419 154.585L135.35 150.999C132.965 150.981 130.578 150.996 128.193 151.045L128.175 147.453L124.645 147.46L124.646 143.824C122.393 143.705 119.856 143.755 117.581 143.75L117.558 140.208L103.254 140.226L103.258 143.848C100.945 143.715 98.431 143.762 96.0992 143.762L96.1578 147.465L89.0416 147.427L89.0181 151.003L81.8023 151L81.8433 154.705C71.1394 154.639 60.2879 154.741 49.6255 154.58L49.5787 147.425L53.1031 147.405L53.1255 143.759L63.9117 143.751L63.9156 140.205L70.9849 140.245L71.063 136.73L74.69 136.805L74.7183 133.241L78.147 133.207C78.2383 130.897 78.218 128.408 78.2418 126.083L81.8668 126.106C81.9157 122.561 81.9207 119.015 81.8824 115.469L78.2408 115.487C78.1999 111.861 78.2074 108.235 78.2613 104.609L74.7056 104.624L74.7349 86.9473L78.2378 86.8389L78.2388 79.5244L81.8023 79.5762L81.8052 75.9922L85.4166 76.1123L85.4195 72.665L89.0171 72.6494L89.0132 68.9004L95.9791 68.8945L96.0601 65.3711C98.4547 65.3979 100.849 65.4463 103.243 65.5176L103.267 61.8242L145.893 61.835L145.91 65.4102C149.535 65.4379 153.197 65.3956 156.825 65.3789V68.8857C160.349 68.9156 163.874 68.928 167.399 68.9209L167.439 72.5908L174.77 72.6367L174.701 75.9854L178.196 76.165L178.211 79.6025L181.816 79.6992L181.767 83.1475L185.418 83.208L185.357 86.7471L188.893 86.8018L188.787 90.3906L192.427 90.4453L192.447 97.4023L196.048 97.4561C195.881 102.104 195.973 107.065 195.985 111.737L199.5 111.725L199.539 108.205L203.14 108.222L203.213 104.71L206.685 104.7L206.673 101.121L210.143 101.043L210.16 97.5234C212.552 97.4919 214.941 97.4882 217.334 97.5127L217.343 94.041L224.56 93.999L224.548 90.4111C229.286 90.3401 234.026 90.3676 238.763 90.4941C238.784 89.2906 238.789 88.0864 238.78 86.8828C251.842 86.7431 264.906 86.7352 277.97 86.8604L277.914 90.4688L285.048 90.3984L285.022 93.9424L292.155 94.0039L292.127 97.5234C302.7 97.6413 313.664 97.4919 324.305 97.5234L324.327 94.0498C326.714 93.9285 329.142 93.9342 331.534 93.9121C331.515 92.799 331.569 91.5198 331.59 90.3926L335.168 90.4512L335.196 86.8857L342.211 86.8193L342.209 83.0332L345.924 83.0498L345.927 79.6621L352.817 79.6797L352.834 76.1631L356.507 76.1504L356.545 72.6729L360.09 72.6689L360.083 68.8965L367.257 68.9004L367.328 65.4053L370.866 65.4541L370.871 61.8389L378.129 61.8604L378.036 58.2959L384.927 58.3086ZM53.4898 304.435C52.3438 304.445 51.1818 304.457 50.021 304.461C51.1818 304.457 52.3438 304.445 53.4898 304.435ZM206.518 229.485L203.042 229.556L203.103 236.641L199.478 236.653L199.458 240.188L195.915 240.202L195.896 243.752C193.553 243.804 191.126 243.893 188.79 243.869L188.793 240.337L185.374 240.32L185.363 243.722L181.722 243.891C181.713 246.231 181.747 248.72 181.669 251.046C178.09 251.004 174.509 251.039 170.93 251.152L170.933 247.431L167.428 247.511L167.417 251.143L163.863 251.062L163.864 254.686H160.348L160.374 258.242L156.729 258.211L156.646 261.61C153.057 261.575 149.468 261.598 145.879 261.681L145.89 258.223L142.301 258.251C142.351 249.917 142.232 241.456 142.327 233.16L135.393 233.099C135.394 234.23 135.369 235.491 135.398 236.61L131.771 236.629C131.79 239.045 131.824 241.463 131.873 243.881L128.199 243.879L128.2 251.147L124.638 251.016L124.648 261.615L121.139 261.644V268.801L117.552 268.797L117.539 275.882L113.983 275.862L114.056 283.117H110.325L110.32 290.139L106.773 290.063L106.819 293.744L103.244 293.756L103.253 297.322L110.287 297.388L110.285 293.728L113.851 293.695L113.83 290.007H117.426L117.417 286.457L121.122 286.49L121.162 283.448L121.393 283.07C122.974 282.828 126.443 282.934 128.179 282.938L128.207 279.372L131.808 279.349C131.798 280.52 131.764 281.766 131.794 282.931L135.339 282.964L135.39 289.99L138.978 290.012L138.969 293.632C141.307 293.627 143.644 293.655 145.981 293.719C145.927 294.958 145.869 296.083 145.908 297.327L153.121 297.324L153.096 300.851L196.025 300.912L196.086 297.449C199.61 297.376 203.134 297.341 206.66 297.336L206.735 293.704L217.311 293.702L217.323 290.021L224.443 290.032L224.528 286.479L228.162 286.539L228.197 283.022L235.235 283.007L235.26 279.391L238.752 279.387C238.766 278.276 238.815 276.951 238.794 275.857H242.428L242.454 272.365L245.898 272.351C245.947 269.963 245.975 267.578 245.982 265.192L249.483 265.129L249.478 258.047L253.008 258.037C253.06 250.922 253.067 243.804 253.03 236.688C251.981 236.703 250.513 236.679 249.502 236.775L249.483 229.594L245.978 229.563L245.968 222.452C244.813 222.459 243.587 222.446 242.442 222.479L242.341 218.974L238.803 218.969V215.269L235.296 215.25L235.195 211.707L224.622 211.642L224.588 208.177L206.561 208.169L206.518 229.485ZM99.6793 297.353L99.6714 300.882L103.167 300.872L103.218 297.393C102.055 297.376 100.838 297.336 99.6793 297.353ZM174.635 261.596L174.57 265.19L178.103 265.162L178.189 272.339L174.555 272.324L174.594 275.455L174.454 275.759C173.622 276.046 171.941 275.917 170.988 275.896L170.966 272.32L167.419 272.355L167.408 265.127L170.973 265.164L171.044 261.594L174.635 261.596ZM192.408 254.631L195.91 254.692L195.945 261.704C194.111 261.464 187.186 261.427 185.427 261.754C185.04 261.213 185.253 255.721 185.266 254.646L188.863 254.626L188.924 250.992L192.443 250.985L192.408 254.631ZM213.79 247.23C213.761 249.086 213.599 253.012 213.87 254.666C211.393 254.57 209.181 254.619 206.713 254.678L206.693 251.051L203.169 250.978L203.176 247.513L206.685 247.436L206.713 243.857L213.928 243.855L213.79 247.23ZM117.559 215.162L124.623 215.153L124.648 211.599L131.741 211.655L131.763 208.092L135.267 208.085L135.42 204.485L139.084 204.497L139.016 218.952L135.425 218.945L135.43 226.011L138.852 226.007L138.957 222.429L145.983 222.436L145.848 226.044L149.546 225.992C149.463 235.114 149.299 245.57 149.525 254.641L153.058 254.654L153.074 240.204L156.673 240.167C156.916 233.035 156.674 225.971 156.816 218.842L160.271 218.865C160.367 228.018 160.454 238.26 160.28 247.405L163.776 247.374C163.862 242.615 163.882 237.854 163.834 233.096L167.309 233.082C167.443 225.934 167.28 218.82 167.42 211.717C169.736 211.522 172.182 211.665 174.516 211.608L174.532 243.785L178.004 243.74C178.096 239.017 178.097 234.291 178.008 229.567L181.58 229.549C181.79 222.339 181.495 215.172 181.693 208.073L188.907 208.07C188.736 216.233 188.823 224.896 188.819 233.11L196.025 233.112L196.05 226.016L199.495 225.976C199.697 221.116 199.433 216.503 199.56 211.726C198.424 211.756 197.119 211.757 196.002 211.839C196.058 208.202 196.069 204.565 196.039 200.929L192.408 200.962L192.455 193.807L188.866 193.847L188.838 190.336L185.216 190.44L185.18 186.784L181.694 186.775L181.555 183.21L178.125 183.243L178.036 179.567L174.492 179.552L174.483 175.998L163.906 175.912L163.87 172.405C160.318 172.421 156.581 172.496 153.044 172.428L153.027 168.908L117.563 168.847L117.559 215.162ZM217.351 250.945H217.35L217.365 247.442L217.351 250.945ZM306.517 136.704L306.564 143.876L302.992 143.87C302.987 146.211 302.942 148.667 302.994 150.997L299.352 150.998L299.364 154.673C298.183 154.675 297.005 154.69 295.827 154.718L295.855 161.756L292.247 161.779L292.277 165.324L288.575 165.331L288.567 172.351L285.015 172.38L285.062 175.945L281.494 175.966C281.498 176.752 281.581 178.921 281.375 179.554L277.954 179.521L277.961 183.203L270.907 183.261L270.885 186.763C258.999 186.68 247.111 186.677 235.225 186.755L235.188 190.386L238.77 190.421L238.807 193.879L253.097 193.934L253.077 197.41L256.602 197.382L256.605 200.957C257.781 200.957 259.019 200.979 260.19 200.932L260.213 204.505L263.678 204.537V211.59L267.192 211.648L267.18 229.652C276.368 229.815 286.592 229.679 295.815 229.622L295.843 226.007C299.369 226 302.966 225.955 306.485 226.002C306.497 223.669 306.539 221.274 306.515 218.945L303.022 218.907C302.987 212.128 302.768 204.062 303.107 197.403L306.574 197.432L306.557 193.87L310.105 193.922L310.045 190.312C312.115 190.313 315.023 190.226 317.027 190.366L317.202 186.758L320.767 186.761L320.782 183.109L324.338 183.03L324.295 179.468L327.937 179.438L328.014 175.952L320.685 175.945L320.772 168.892L324.279 168.849L324.265 158.215L320.826 158.245L320.789 165.313L317.173 165.275C317.136 168.855 317.168 172.435 317.274 176.013C314.908 175.934 312.542 175.9 310.175 175.914C310.051 172.259 310.09 168.938 310.161 165.279L313.652 165.287C313.68 162.863 313.664 160.438 313.6 158.015C314.623 158.022 316.058 157.989 317.044 158.077C317.079 154.545 317.168 150.846 317.112 147.328C316.004 147.33 314.79 147.305 313.692 147.361L313.687 154.742L310.154 154.705C310.102 157.049 310.09 159.393 310.121 161.737C308.872 161.707 307.752 161.668 306.501 161.739L306.627 168.883L299.332 168.859L299.329 161.723L302.928 161.663C302.961 159.286 302.982 156.908 302.989 154.53L306.569 154.526L306.505 147.258L310.025 147.278C310.103 143.72 310.19 140.239 310.117 136.68L306.517 136.704ZM356.514 83.293C355.296 83.2993 354.044 83.2854 352.831 83.3506L352.834 86.8652L349.469 86.8838C349.448 88.045 349.399 89.3084 349.427 90.46L342.173 90.3916L342.201 93.9336L338.644 93.9414L338.677 97.5254L331.611 97.5332L331.614 101.055C329.219 101.04 326.674 100.981 324.292 101.042L324.265 104.607C313.668 104.621 302.714 104.786 292.16 104.587V101.055L285.025 101.061L285.03 97.5684L277.961 97.5127L277.987 93.9766C270.42 93.9281 262.852 93.9289 255.288 93.9795C249.993 93.975 243.999 93.8088 238.763 93.9375L238.76 97.5381C234.028 97.5477 229.295 97.5184 224.562 97.4512L224.57 101.065C222.18 101.061 219.724 101.026 217.341 101.068L217.33 104.645L213.7 104.633L213.681 108.19L210.169 108.206L210.167 111.852L206.643 111.888L206.671 115.438L203.105 115.439L203.124 118.997L199.508 118.955C199.473 122.512 199.506 126.069 199.607 129.624L196.006 129.616C195.924 137.92 195.919 146.225 195.992 154.528L199.615 154.544C199.568 156.926 199.481 159.413 199.488 161.786L203.131 161.777L203.143 168.774L206.678 168.823L206.553 172.359C207.88 172.327 209.054 172.067 210.004 172.811C210.242 173.643 210.157 173.942 210.075 174.792C210.148 175.288 210.068 175.565 210.369 175.73C211.067 176.113 212.893 175.927 213.738 175.886L213.69 179.431L217.261 179.497L217.247 183.042L224.574 183L224.548 186.763L228.117 186.832L228.128 183.044L231.68 183.126L231.671 179.501L270.914 179.482L270.909 175.961L274.465 175.922L274.454 172.394L277.954 172.354L277.959 168.836L281.518 168.819V165.339L285.058 165.28L285.025 161.764L288.537 161.648L288.563 154.512L292.088 154.5L292.138 150.886L295.807 150.937L295.852 143.77L299.345 143.752L299.4 136.667L302.94 136.685L303.052 129.609C307.416 129.606 312.878 129.758 317.154 129.548L317.244 133.153L324.324 133.165L324.303 136.769L328.097 136.761L328.083 140.184L331.423 140.201C331.449 137.033 331.618 132.689 331.482 129.619L335.119 129.631L335.154 119.003L338.666 119.03L338.704 111.922L342.212 111.914L342.232 104.658L345.755 104.641L345.791 101.11L349.294 101.07C349.397 98.7297 349.432 96.3864 349.399 94.0439L352.827 93.9346L352.831 90.4102L356.372 90.3555L356.514 83.293ZM328.014 175.952L331.552 175.95L331.557 168.859L328.049 168.83L328.014 175.952ZM335.163 161.727C333.97 161.731 332.778 161.751 331.586 161.785L331.557 168.859L335.121 168.813L335.163 161.727ZM324.31 151.01L324.338 158.021L327.897 158.058L327.944 150.985L324.31 151.01ZM145.918 68.917C133.034 68.7152 119.697 68.8952 106.766 68.8867L106.82 72.6504L96.1402 72.667L96.1324 76.1445L92.4068 76.1104L92.44 79.7236L88.9527 79.7393L89.0748 83.3662L85.3335 83.332L85.3052 90.374L81.7955 90.3818C81.7755 95.1114 81.7916 99.8413 81.8433 104.57L85.4175 104.556L85.3365 115.415L88.9253 115.409C89.0542 120.149 89.0678 124.892 88.9673 129.633L85.3541 129.601L85.398 136.789L81.8804 136.804L81.8375 140.304C80.6978 140.248 79.4215 140.273 78.2691 140.27L78.3033 143.754L70.9947 143.773L71.0005 147.412C74.5957 147.301 77.9958 147.362 81.5953 147.429L81.6539 143.769L88.941 143.72L88.9761 140.19L96.107 140.319L96.1002 136.816L103.148 136.715L103.171 133.171L117.606 133.196L117.584 136.719C119.824 136.835 122.392 136.775 124.658 136.772L124.651 140.24L128.225 140.239L128.207 143.716L135.518 143.725L135.458 147.375L142.305 147.443L142.292 150.973C144.766 150.922 147.242 150.907 149.717 150.928C149.678 152.067 149.69 153.347 149.678 154.498L167.365 154.512L167.381 150.857C169.764 150.871 172.146 150.916 174.528 150.993L174.599 147.401L181.597 147.358C181.672 144.973 181.693 142.586 181.661 140.199L185.285 140.255L185.268 136.724L188.838 136.766C188.914 133.276 188.844 129.574 188.835 126.068L192.359 126.065C192.443 120.139 192.46 114.211 192.409 108.284L188.861 108.312C188.836 104.717 188.851 101.122 188.906 97.5273L185.314 97.5127L185.326 90.667C184.706 90.2817 182.546 90.4558 181.707 90.4766L181.717 86.9785L178.152 86.9072L178.142 83.3721L174.558 83.334C174.58 82.1809 174.539 80.9299 174.524 79.7686C172.239 79.7177 169.731 79.7923 167.429 79.8135L167.364 76.1455C163.853 76.109 160.342 76.0916 156.832 76.0938L156.784 72.6279L145.877 72.6846L145.918 68.917ZM246.005 140.197L249.579 140.226L249.532 147.408L246.001 147.391L246.01 151.005L238.74 151L238.711 147.423L235.215 147.458V140.201L238.742 140.252L238.779 136.729C241.195 136.747 243.613 136.735 246.029 136.693L246.005 140.197ZM63.9625 147.388C63.9613 148.173 63.9066 150.197 64.0474 150.869L70.9839 150.825L71.0015 147.412C68.6552 147.45 66.3083 147.442 63.9625 147.388ZM328.084 147.443L328.045 150.854L331.537 150.838L331.541 147.405L328.084 147.443ZM317.199 140.336C317.175 142.606 317.103 145.051 317.145 147.307L320.73 147.36C320.739 145.022 320.713 142.684 320.652 140.347L317.199 140.336ZM263.657 133.142L267.377 133.165L267.296 136.679L270.89 136.709L270.878 140.35C269.719 140.265 268.42 140.267 267.247 140.24L267.296 143.769C264.975 143.742 262.556 143.78 260.227 143.787L260.209 140.345L256.558 140.388L256.6 133.182L260.277 133.251L260.295 129.603L263.68 129.598L263.657 133.142ZM285.013 129.595L288.58 129.609L288.565 136.789C287.452 136.733 286.124 136.737 284.995 136.714V140.275C282.631 140.211 280.306 140.286 277.945 140.345L277.973 136.708H274.489C274.399 134.351 274.44 131.97 274.454 129.609L277.954 129.617V126.068L285.044 126.06L285.013 129.595ZM160.235 104.609C160.183 108.237 160.21 111.866 160.315 115.492L149.515 115.471C149.548 111.814 149.381 108.398 149.53 104.688L160.235 104.609ZM138.983 101.003L142.344 101.024L142.397 104.639L138.963 104.629C138.994 105.855 139.07 106.956 138.891 108.171L138.502 108.373L128.213 108.306C128.336 106.206 128.229 103.188 128.218 101.021L131.759 101.072L131.784 97.5479C134.191 97.5222 136.598 97.5111 139.005 97.5137L138.983 101.003ZM117.58 90.4453L117.563 93.9453L121.128 93.9814L121.108 101.065L116.754 101.08L110.291 101.043L110.323 94.0322L113.853 94.0352C113.814 92.7951 113.76 91.9369 113.921 90.6904L114.349 90.3994L117.58 90.4453ZM356.576 79.7725L356.574 83.1816L360.097 83.2227L360.104 79.7627L356.576 79.7725ZM360.104 79.7627L363.797 79.7354L363.712 76.1641L360.09 76.1348L360.104 79.7627Z" fill="black"/>
</svg>