<svg width="402" height="402" viewBox="0 0 402 402" fill="none" xmlns="http://www.w3.org/2000/svg">
<g clip-path="url(#clip0_252_388)">
<path d="M0 0H402V402H0V0Z" fill="#FE00FF"/>
<path d="M116.601 11.9854L120.623 11.9882L120.646 24.1242L124.642 24.1275L124.642 28.1045L128.586 28.1L128.574 32.1611L132.677 32.1795L132.679 40.2095C134 40.1702 135.4 40.2003 136.728 40.2081C136.692 44.211 136.683 48.2144 136.701 52.2175L140.709 52.2118L140.698 88.4705L144.708 88.476L144.705 84.3898L152.698 84.3877L152.708 88.5492L144.751 88.5343L144.765 92.4457L148.829 92.4422L148.785 100.503L152.736 100.503L152.726 104.578L148.797 104.562L148.786 132.656L156.668 132.65L156.695 128.619L176.854 128.616L176.856 132.628L180.817 132.638L180.829 104.59L176.872 104.576L176.871 100.51L180.821 100.495C180.827 97.8855 180.775 95.0212 180.855 92.433L184.903 92.4428L184.901 52.2114L188.902 52.1982L188.967 40.2223L192.933 40.1816L192.94 32.1432L196.925 32.1459L196.92 28.0992L200.983 28.0894L200.991 24.1421L204.942 24.1364L204.96 12.0704L209.044 12.0302L209.046 24.1476L213.037 24.1442L213.033 28.0953L217.086 28.0985L217.071 32.1587L221.11 32.163C221.142 34.8396 221.157 37.5164 221.159 40.1934C222.476 40.1861 223.839 40.1598 225.15 40.1757L225.144 52.2161L229.085 52.21L229.093 84.3836C234.375 84.3849 239.944 84.2907 245.201 84.3898L245.195 88.4461L273.372 88.4503L273.376 92.4577L285.485 92.4671L285.456 96.4514C289.48 96.399 293.504 96.3903 297.528 96.4253L297.425 100.497L309.529 100.498L309.531 104.473C313.423 104.48 317.708 104.408 321.573 104.505L321.532 108.542L329.693 108.539L329.633 112.526L337.708 112.548L337.647 116.616L361.797 116.595L361.8 112.539L389.919 112.546L389.917 144.77L237.216 144.788C237.192 142.104 237.184 139.419 237.19 136.735L233.145 136.722L233.135 176.9L237.206 176.919L237.208 180.99L233.155 180.975L233.149 224.985L237.279 224.992L237.263 229.207L233.153 229.211L233.125 249.232C235.789 249.214 238.511 249.228 241.169 249.179L241.21 245.222L245.195 245.2L245.203 241.206C247.874 241.167 250.546 241.165 253.219 241.2L253.221 245.2L257.251 245.226L257.249 249.197L269.284 249.216L269.291 237.135H273.355C273.372 241.167 273.362 245.196 273.325 249.228L349.784 249.222L349.799 237.149L353.692 237.158L353.678 249.228L365.724 249.232V245.173L369.711 245.171L369.693 241.196C373.792 241.141 377.89 241.131 381.989 241.173L381.967 249.199L389.882 249.222L389.88 253.201L369.833 253.199L369.815 257.353L361.785 257.36L361.779 261.298L357.808 261.288L357.804 265.314L345.699 265.336L345.677 261.347L341.647 261.327V257.331L329.597 257.298L329.609 253.191L293.437 253.203L293.441 257.29L281.501 257.292L281.481 261.296L277.549 261.292L277.518 265.322L269.291 265.338L269.276 261.316L265.273 261.298L265.252 257.282L257.186 257.284L257.163 253.309L233.147 253.282V261.308H229.095L229.097 229.219H196.969L196.922 265.279L249.288 265.281L249.293 269.287L257.259 269.307L257.275 273.325L261.271 273.364L261.269 277.378L265.305 277.382L265.315 281.424L273.402 281.431L273.392 285.377L277.398 285.394L277.404 329.616L289.393 329.583L289.429 313.472L293.466 313.464L293.474 329.599L309.529 329.581L309.542 325.604C314.909 325.551 320.277 325.541 325.646 325.579L325.634 329.597L373.876 329.593L373.888 313.466H377.9L377.884 329.593H390.001L389.978 333.705L333.706 333.711L333.696 337.741L309.533 337.745L309.523 333.719L180.989 333.674L180.984 337.702L160.738 337.725L160.747 345.726L164.874 345.724L164.863 349.783L160.732 349.791L160.735 385.896L156.73 385.912L156.691 353.746L152.73 353.742L152.713 357.78L144.718 357.798L144.723 361.824L136.739 361.827L136.724 365.875H132.675L132.681 385.902L112.483 385.908L112.479 377.988C107.172 377.976 101.764 378.015 96.4653 377.933L96.4536 385.902L60.284 385.914L60.2906 377.933L44.3473 377.935L44.31 385.892L12.0052 385.914L11.987 365.847L132.632 365.857L132.631 361.835L12.0085 361.808L12.0089 353.725L28.0657 353.713L28.0678 349.724L32.0264 349.701L32.0668 341.72H28.1079L28.1049 345.751C22.7384 345.716 17.3716 345.714 12.005 345.742L11.9993 309.577L112.47 309.544L112.514 305.477L120.584 305.447L120.631 301.482L128.615 301.467L128.622 297.486C131.326 297.464 134.03 297.466 136.734 297.49L136.717 301.478L140.733 301.486L140.733 305.453L148.796 305.471L148.8 309.573H152.717L152.714 313.464L160.753 313.485L160.76 317.568L164.882 317.57L164.879 321.622L160.752 321.631C160.751 324.271 160.719 326.976 160.754 329.611L176.884 329.601L176.897 321.626L180.837 321.616L180.903 317.588L185.022 317.586C185.015 318.903 184.983 320.303 185.01 321.614H189.021L189.006 329.605L192.97 329.607L192.966 321.582L196.878 321.553L196.892 317.568L201.006 317.562L201 321.586L205.06 321.576L205.015 329.616L209.021 329.609L209.019 321.598L212.96 321.569L212.97 317.568L217.12 317.564L217.11 321.563L221.108 321.557L221.081 329.599L225.132 329.603L225.136 321.586L229.089 321.571L229.105 317.578L233.19 317.566L233.188 321.576L237.247 321.573C237.245 324.23 237.206 326.965 237.239 329.612L241.13 329.607L241.144 321.573L245.164 321.567L245.181 317.566L249.307 317.58L249.303 321.576L253.219 321.582L253.231 329.611L257.224 329.612C257.222 317.605 257.116 305.459 257.249 293.468L172.906 293.456L172.901 325.612L168.78 325.618L168.785 293.472L156.7 293.468L156.757 277.443L160.772 277.419L160.786 273.338L164.853 273.354L164.869 277.413L168.836 277.431C168.839 281.361 168.788 285.463 168.857 289.379L172.905 289.363L172.904 285.402L176.864 285.389L176.864 277.439L180.896 277.406L180.948 273.354L184.901 273.376L184.914 277.384L188.88 277.4L188.89 273.334L192.941 273.327L192.964 269.338C178.519 269.65 163.328 269.354 148.798 269.391L148.78 301.492L144.74 301.502L144.723 269.42C140.716 269.287 136.163 269.379 132.103 269.381L108.542 269.403L108.536 305.61L92.4599 305.602L92.4542 269.413L88.389 269.403L88.4316 265.281L84.3832 265.312L84.3857 253.221L88.3914 253.219L88.3898 265.289L92.4406 265.261C92.5653 253.313 92.4522 241.163 92.4542 229.197L88.4167 229.199L88.3904 245.328L56.158 245.304L56.1468 305.599L52.1323 305.6L52.1606 289.515L12.0075 289.507L11.9857 285.416H52.1786L52.1737 257.333L11.9675 257.329L11.9619 253.238L52.1492 253.219C52.1804 250.938 52.277 247.497 52.1017 245.306L48.2283 245.334L48.2583 241.078L52.1867 241.086L52.1918 237.125L56.2575 237.127L56.2866 233.221H60.2728L60.2781 221.131C54.7902 221.014 48.8963 221.114 43.3817 221.116L11.9704 221.127L11.9678 184.916L16.0816 184.907L16.0991 180.97L20.0612 180.955L20.0691 176.913L24.091 176.889L24.1224 172.824L28.0655 172.805L28.0739 168.791L32.0286 168.77L32.0331 160.775L36.1094 160.755L36.1336 156.696L40.1353 156.671L40.1581 152.728L60.2628 152.701L60.2738 116.586L64.3258 116.574L64.3144 80.4725L68.3834 80.476L68.3428 116.574L72.3695 116.575L72.364 152.718L88.4687 152.718L88.4183 176.899L92.4571 176.893L92.4569 136.742L88.4475 136.734L88.4426 140.716L76.3628 140.721L76.3655 132.683L84.4369 132.686L84.4212 136.656L88.371 136.642L88.3818 132.695L92.4506 132.684L92.4603 104.601L88.3714 104.599L88.3747 100.518L92.4516 100.516L92.4844 92.4695L96.411 92.4591L96.412 52.2593L100.484 52.1947C100.51 48.2061 100.516 44.2173 100.501 40.2285L104.518 40.2095L104.549 32.1611L108.546 32.1544L108.556 28.1214L112.43 28.0835L112.452 24.1218L116.564 24.1207L116.601 11.9854Z" fill="black"/>
<path d="M229.085 88.5242C234.428 88.5293 239.85 88.5805 245.187 88.5151L245.177 92.4992L273.348 92.4973L273.338 96.4776C277.362 96.5178 281.386 96.5237 285.41 96.4949L285.408 100.502L297.433 100.508V104.538C301.449 104.549 305.51 104.592 309.522 104.553L309.53 108.539L321.531 108.542L329.693 108.539L329.632 112.526L337.707 112.548L337.647 116.616C337.588 117.886 337.609 119.393 337.596 120.683L321.571 120.696L321.573 124.607L305.54 124.607L305.538 128.592L293.46 128.605L293.452 132.683L257.188 132.683L257.178 136.652L237.207 136.668L237.231 132.67L233.134 132.672C233.26 123.404 233.15 113.862 233.164 104.572L237.211 104.583L237.223 100.505L233.134 100.493L233.17 92.4594L229.073 92.4672L229.085 88.5242Z" fill="#FE00FF"/>
<path d="M329.632 112.526L337.707 112.548L337.646 116.616L329.628 116.613L329.632 112.526Z" fill="black"/>
<path d="M321.531 108.542L329.693 108.539L329.632 112.526L321.516 112.539L321.531 108.542Z" fill="black"/>
<path d="M229.073 92.4673L229.061 100.488L196.952 100.487L196.997 92.4906L229.073 92.4673Z" fill="#FE00FF"/>
<path d="M192.977 265.355L196.894 265.353L196.872 269.295L192.964 269.338L192.977 265.355Z" fill="#FE00FF"/>
<path d="M108.552 180.98L144.727 180.986L144.72 224.983L108.546 224.995L108.552 180.98Z" fill="#FE00FF"/>
<path d="M124.65 196.966H128.622C128.615 202.176 128.77 207.921 128.587 213.072L124.619 213.091C124.595 207.717 124.605 202.341 124.65 196.966Z" fill="black"/>
<path d="M88.4769 180.989L92.4545 180.989L92.4447 224.955L88.4 224.957L88.4227 217.094L76.3464 217.092L76.3401 221.029L72.4077 221.037L72.3869 224.951L68.3229 224.961L68.3215 229.103L64.3377 229.108L64.3655 217.101L56.1697 217.088L56.1736 212.948L48.2816 212.926L48.2843 209.044L44.2952 209.048C44.2818 207.943 44.2019 206.286 44.4035 205.25L44.726 205.094L48.2555 205.102L48.2494 201.002L44.3409 200.996L44.3311 205.045C42.9857 205.02 41.6001 205.036 40.2508 205.032L40.2414 200.998H16.082L16.0903 192.979L88.3841 192.983C88.5409 189.151 88.4636 184.854 88.4769 180.989Z" fill="#FE00FF"/>
<path d="M76.3994 201L80.513 200.996L80.4916 212.98L76.4081 212.982L76.3994 201Z" fill="black"/>
<path d="M68.3115 201.006L72.392 201.002L72.3853 212.987L68.3096 212.993L68.3115 201.006Z" fill="black"/>
<path d="M52.1816 201.002L56.1555 200.998L56.152 209.022L52.183 209.02L52.1816 201.002Z" fill="black"/>
<path d="M108.563 136.748L144.737 136.746L144.717 176.87L108.562 176.876L108.563 136.748Z" fill="#FE00FF"/>
<path d="M124.625 144.702L128.622 144.678L128.611 148.759L132.675 148.749L132.681 172.911L120.56 172.914L120.584 148.731L124.647 148.77L124.625 144.702Z" fill="black"/>
<path d="M124.647 148.77L128.582 148.808L128.577 168.765L124.652 168.764C124.653 162.282 124.806 155.199 124.647 148.77Z" fill="#FE00FF"/>
<path d="M196.961 180.979L229.076 180.99L229.078 224.979L196.961 224.986V180.979Z" fill="#FE00FF"/>
<path d="M212.97 196.988L217.117 197.015L217.111 213.013L212.974 213.005L212.97 196.988Z" fill="black"/>
<path d="M180.988 229.217C184.97 229.195 188.953 229.203 192.935 229.24L192.932 253.131L192.945 265.265L148.788 265.295L148.8 229.223C152.799 229.199 156.799 229.199 160.798 229.221L160.787 241.237L180.978 241.222L180.988 229.217Z" fill="#FE00FF"/>
<path d="M108.545 229.209C120.464 229.058 132.799 229.195 144.732 229.217L144.72 265.285L108.553 265.265L108.545 229.209Z" fill="#FE00FF"/>
<path d="M124.62 237.117L128.649 237.119L128.617 257.313L124.621 257.325L124.62 237.117Z" fill="black"/>
<path d="M196.973 136.702L229.08 136.726L229.066 176.882L196.977 176.884L196.973 136.702Z" fill="#FE00FF"/>
<path d="M212.98 144.727L217.11 144.724L217.096 148.766L221.177 148.745L221.169 172.912L208.983 172.915L209.015 148.719C210.328 148.706 211.69 148.738 213.007 148.752C212.99 147.41 212.98 146.069 212.98 144.727Z" fill="black"/>
<path d="M212.98 144.727L217.11 144.724L217.096 148.766L217.084 168.794L213.023 168.798C212.915 162.226 213.004 155.341 213.007 148.752C212.99 147.41 212.98 146.069 212.98 144.727Z" fill="#FE00FF"/>
<path d="M212.979 144.727L217.109 144.724L217.096 148.766C215.733 148.788 214.369 148.783 213.007 148.752C212.989 147.41 212.979 146.069 212.979 144.727Z" fill="black"/>
<path d="M108.559 104.569L144.731 104.581L144.7 132.643L108.573 132.632L108.559 104.569Z" fill="#FE00FF"/>
<path d="M124.636 108.551L128.624 108.549L128.625 112.494L132.671 112.508L132.67 128.67L128.785 128.68C126.049 128.655 123.312 128.654 120.576 128.677L120.575 112.488L124.625 112.484L124.636 108.551Z" fill="black"/>
<path d="M124.665 112.614L128.576 112.636L128.58 124.632L124.655 124.632L124.665 112.614Z" fill="#FE00FF"/>
<path d="M80.4572 333.688L128.583 333.693L128.59 353.707C112.756 353.931 96.3487 353.715 80.4623 353.709C80.4218 347.035 80.4203 340.361 80.4572 333.688Z" fill="#FE00FF"/>
<path d="M92.4395 337.624L120.699 337.633C120.702 341.677 120.684 345.718 120.645 349.762C111.773 350.039 101.437 349.786 92.4514 349.79L92.4395 337.624Z" fill="black"/>
<path d="M100.514 341.728L112.476 341.724L112.466 345.685C108.661 345.785 104.365 345.704 100.527 345.71L100.514 341.728Z" fill="#FE00FF"/>
<path d="M196.952 104.552L229.063 104.584C229.067 108.09 229.411 131.679 228.816 132.654L196.968 132.66L196.952 104.552Z" fill="#FE00FF"/>
<path d="M212.999 108.533L217.1 108.516L217.104 112.497L221.179 112.503L221.165 128.654L216.458 128.664L209.001 128.673L209.013 112.507L212.99 112.493L212.999 108.533Z" fill="black"/>
<path d="M213.037 112.532L217.09 112.551L217.08 124.603L213.035 124.585C212.997 120.568 212.997 116.55 213.037 112.532Z" fill="#FE00FF"/>
<path d="M188.907 192.98L192.931 193.006L192.927 224.969L180.978 224.983L180.992 204.981L176.908 204.967L176.912 201.004L164.816 201L164.793 204.965L160.798 204.989L160.795 209.04L160.791 224.989L148.79 224.997L148.804 196.929L188.895 196.941L188.907 192.98Z" fill="#FE00FF"/>
<path d="M164.858 156.835L168.828 156.822L168.821 160.834L172.878 160.821L172.892 164.873L176.853 164.86L176.86 172.91L180.83 172.92L180.825 176.858L176.856 176.871L176.865 181.015L180.838 181.014L180.865 184.869L168.711 184.871L148.794 184.872L148.79 180.983L152.738 180.998L152.754 172.911L156.827 172.906L156.837 168.837L160.784 168.853L160.8 160.799L164.812 160.812L164.858 156.835Z" fill="#FE00FF"/>
<path d="M148.794 136.757L152.684 136.769L152.696 140.735L176.853 140.731L176.856 136.748L180.837 136.763L180.823 160.859L180.827 164.752L176.852 164.786L176.865 160.759L172.896 160.772L172.906 156.742L168.865 156.728L168.906 152.728L148.797 152.708L148.794 136.757Z" fill="#FE00FF"/>
<path d="M152.727 321.673L156.693 321.669L156.691 341.673L148.653 341.687L148.613 345.683L144.701 345.708L144.689 349.734L136.719 349.76L136.67 353.697L132.695 353.701L132.707 333.688L136.712 333.69L136.718 329.611L144.744 329.615L144.753 325.634L152.706 325.624L152.727 321.673Z" fill="#FE00FF"/>
<path d="M140.762 333.572L144.716 333.587C144.703 336.3 144.706 339.013 144.724 341.726L140.749 341.728C140.744 343.06 140.73 344.395 140.709 345.728H136.708L136.709 337.621L140.719 337.598L140.762 333.572Z" fill="black"/>
<path d="M148.643 329.583L152.716 329.587C152.724 332.304 152.717 335.022 152.694 337.739L148.634 337.737L148.643 329.583Z" fill="black"/>
<path d="M269.407 289.53L273.384 289.538L273.372 329.605L265.177 329.595L261.231 329.612L261.247 293.466L269.379 293.476L269.407 289.53Z" fill="#FE00FF"/>
<path d="M120.706 52.2676L124.606 52.2817L124.607 56.3225L128.588 56.3217L128.575 88.4672L124.005 88.4727L116.555 88.4886L116.575 56.3251L120.643 56.3276L120.706 52.2676Z" fill="#FE00FF"/>
<path d="M164.871 205.081L176.866 205.073L176.861 237.119H164.872L164.871 205.081Z" fill="#FE00FF"/>
<path d="M108.547 92.4775L144.687 92.4997L144.721 100.498L108.558 100.504L108.547 92.4775Z" fill="#FE00FF"/>
<path d="M213.056 52.2222L217.068 52.229L217.066 88.4391L213.5 88.4273L209.044 88.4693L209.052 56.3256L213.046 56.3315L213.056 52.2222Z" fill="#FE00FF"/>
<path d="M196.987 52.2129L200.986 52.2184L200.99 56.3285L204.941 56.3299C204.945 64.9717 205 78.985 204.894 88.1362C204.817 88.2459 204.743 88.3556 204.668 88.4653L197.003 88.4304C196.805 76.5205 196.97 64.1463 196.987 52.2129Z" fill="#FE00FF"/>
<path d="M104.629 52.2427L108.536 52.2709L108.548 56.3227L112.466 56.3296L112.449 88.4808L104.618 88.4607L104.629 52.2427Z" fill="#FE00FF"/>
<path d="M60.2943 341.72L64.2476 341.718L64.2472 349.697L60.26 349.695L60.2545 353.691C56.2282 353.752 52.0637 353.713 48.0284 353.719L44.3236 353.707L44.3213 345.724C49.6382 345.75 54.9552 345.742 60.2721 345.704L60.2943 341.72Z" fill="#FE00FF"/>
<path d="M132.698 52.2427L136.659 52.2611C136.664 64.1853 136.855 76.5955 136.636 88.4708L132.689 88.4588L132.698 52.2427Z" fill="#FE00FF"/>
<path d="M188.922 56.3247L192.925 56.3373C192.933 66.9793 193.038 77.806 192.902 88.4331L188.932 88.4339C188.801 84.8353 188.895 80.6369 188.899 76.9944L188.922 56.3247Z" fill="#FE00FF"/>
<path d="M221.185 56.3174L225.165 56.3211L225.156 88.4361L221.187 88.4259L221.185 56.3174Z" fill="#FE00FF"/>
<path d="M104.57 313.521C108.579 313.511 112.587 313.529 116.595 313.576L116.579 317.533L112.514 317.578L112.473 321.623C109.846 321.657 107.217 321.647 104.59 321.594L104.57 313.521Z" fill="#FE00FF"/>
<path d="M213.201 269.403C215.749 269.34 218.497 269.401 221.061 269.413C221.088 272.049 221.057 274.738 221.049 277.38H213.154C213.139 274.72 213.154 272.063 213.201 269.403Z" fill="#FE00FF"/>
<path d="M233.178 281.479L241.167 281.48L241.106 289.31C239.386 289.473 235.09 289.354 233.18 289.354L233.178 281.479Z" fill="#FE00FF"/>
<path d="M188.993 281.494L196.892 281.482L196.876 289.336L189.001 289.387L188.993 281.494Z" fill="#FE00FF"/>
<path d="M76.348 184.917L76.3454 188.972C73.7173 189.005 71.0227 188.973 68.3887 188.971L68.4089 184.95L76.348 184.917Z" fill="#FE00FF"/>
<path d="M64.3438 136.748L68.2941 136.743L68.2788 144.693L64.3518 144.727L64.3438 136.748Z" fill="#FE00FF"/>
<path d="M52.1688 184.926L52.1464 188.939C49.5609 188.979 46.9402 188.968 44.3516 188.976L44.3604 184.949C46.9632 184.981 49.5662 184.973 52.1688 184.926Z" fill="#FE00FF"/>
<path d="M52.1801 180.975L56.3022 180.956L56.273 184.901L52.1689 184.926L52.1801 180.975Z" fill="#FE00FF"/>
<path d="M76.3587 325.637L80.4428 325.643L80.4114 329.577L76.3447 329.598L76.3587 325.637Z" fill="#FE00FF"/>
<path d="M80.4894 180.946L80.4689 184.884L76.3486 184.917L76.36 180.98C77.7307 180.983 79.1173 180.96 80.4894 180.946Z" fill="#FE00FF"/>
<path d="M64.2921 337.735L68.3139 337.743L68.2795 341.684L64.2646 341.712L64.2921 337.735Z" fill="#FE00FF"/>
<path d="M36.224 333.673L40.2336 333.685L40.2206 337.623L36.1963 337.656L36.224 333.673Z" fill="#FE00FF"/>
<path d="M56.3188 176.938L60.2803 176.922L60.2582 180.917L56.3027 180.956L56.3188 176.938Z" fill="#FE00FF"/>
<path d="M76.3439 329.599L76.3161 333.578L72.3799 333.594L72.3893 329.617L76.3439 329.599Z" fill="#FE00FF"/>
<path d="M180.963 184.919L184.871 184.94C184.879 186.232 184.848 187.775 184.907 189.045C183.6 189.026 182.293 189.014 180.986 189.012L180.963 184.919Z" fill="#FE00FF"/>
<path d="M88.5017 317.614L92.4524 317.62L92.4459 321.547L88.4717 321.587L88.5017 317.614Z" fill="#FE00FF"/>
<path d="M32.662 337.711L36.143 337.723C36.1493 338.74 36.2634 340.708 35.9909 341.564L35.564 341.713H32.0859C32.0836 340.779 32.0002 338.655 32.2591 337.864L32.662 337.711Z" fill="#FE00FF"/>
<path d="M80.4983 176.927L84.386 176.915L84.3907 180.916L80.4893 180.946L80.4983 176.927Z" fill="#FE00FF"/>
<path d="M96.8879 313.566L100.49 313.556C100.502 314.461 100.629 316.919 100.247 317.558L96.5297 317.57C96.514 316.689 96.2545 314.057 96.8879 313.566Z" fill="#FE00FF"/>
<path d="M128.66 301.496L132.595 301.502C132.598 302.819 132.588 304.134 132.564 305.449L128.683 305.443L128.66 301.496Z" fill="#FE00FF"/>
<path d="M84.5173 321.602L88.4458 321.588L88.3697 325.524C87.1012 325.561 85.7343 325.538 84.4572 325.538C84.4358 324.25 84.4872 322.898 84.5173 321.602Z" fill="#FE00FF"/>
<path d="M184.906 189.044L188.866 189.06L188.864 192.95L184.926 192.952C184.923 191.725 184.958 190.249 184.906 189.044Z" fill="#FE00FF"/>
<path d="M281.451 64.2925L293.491 64.3211L293.47 68.35C294.824 68.3201 296.18 68.3033 297.535 68.2997L297.476 72.3549C299.8 72.3535 303.237 72.2469 305.469 72.3851C305.39 71.2013 305.435 69.5365 305.434 68.3146L313.562 68.3058L313.58 64.3455L325.669 64.3329L325.645 68.3402C337.594 68.1517 349.893 68.3038 361.869 68.3111L361.829 72.3843L369.891 72.3941L369.869 76.3862L390.009 76.3911C389.999 79.0387 390.024 81.7736 389.971 84.4129C387.443 84.408 384.479 84.4794 381.988 84.3848L382 88.533L377.872 88.534L377.851 92.5257L361.778 92.541L361.782 88.5361L337.682 88.5138V92.4849C332.376 92.4892 326.811 92.5762 321.527 92.4625L321.515 96.4621C319.288 96.4696 315.774 96.3657 313.654 96.5102L313.595 100.499L309.528 100.498L297.425 100.497L297.527 96.4254C293.503 96.3905 289.479 96.3991 285.455 96.4515L285.485 92.4672L273.376 92.4578L273.372 88.4504L245.194 88.4462L245.2 84.3899L245.194 80.4587L257.229 80.4441L257.276 76.3858L261.233 76.3701L261.241 72.3564L269.281 72.3537L269.283 68.3192L281.437 68.2944L281.451 64.2925Z" fill="#FE00FF"/>
<path d="M325.646 68.34C337.594 68.1516 349.893 68.3037 361.869 68.311L361.829 72.3842L369.891 72.394L369.87 76.3861L390.009 76.391C389.999 79.0386 390.024 81.7735 389.971 84.4128C387.443 84.4079 384.479 84.4793 381.988 84.3847V80.4909L369.82 80.4901L369.838 76.4585L361.8 76.4735V72.4275L325.624 72.425L325.646 68.34Z" fill="black"/>
<path d="M377.849 84.3779L381.988 84.3848L382 88.533L377.872 88.534L377.851 92.5257L361.778 92.541L361.782 88.5361L337.682 88.5137V92.4849C332.376 92.4892 326.812 92.5761 321.527 92.4625L321.51 88.3636L337.666 88.3797L337.68 84.3895L361.828 84.3803L361.81 88.4403L377.845 88.4658L377.849 84.3779Z" fill="black"/>
<path d="M281.451 64.2925L293.491 64.3211L293.47 68.35L285.51 68.3723L285.461 72.3967L281.472 72.3957L281.471 80.4655C280.153 80.4573 278.642 80.4855 277.343 80.4359L277.341 72.411L269.299 72.3929L269.301 76.5079C266.647 76.5054 263.903 76.5393 261.259 76.4897L261.237 80.4763L257.286 80.4761L257.268 84.4013C253.501 84.4021 248.906 84.5148 245.2 84.3899L245.194 80.4586L257.229 80.4441L257.276 76.3858L261.233 76.3701L261.241 72.3564L269.281 72.3537L269.283 68.3192L281.437 68.2944L281.451 64.2925Z" fill="black"/>
<path d="M313.58 64.3451L325.669 64.3325L325.646 68.3398L317.58 68.3767L317.557 72.4151L313.625 72.4008L313.627 76.4365C312.272 76.4392 310.902 76.4528 309.55 76.4394L309.548 84.4521L305.446 84.4463C305.444 81.9361 305.355 78.8648 305.457 76.4019C305.514 75.0454 305.489 73.741 305.469 72.3847C305.391 71.2009 305.436 69.5361 305.434 68.3142L313.562 68.3054L313.58 64.3451Z" fill="black"/>
<path d="M305.469 72.3848C306.823 72.4203 308.18 72.4317 309.534 72.4185V76.3565C308.291 76.3624 306.664 76.3239 305.457 76.402C305.514 75.0455 305.488 73.7411 305.469 72.3848Z" fill="#FE00FF"/>
<path d="M293.47 68.3501C294.824 68.3202 296.18 68.3033 297.535 68.2998L297.476 72.3549C299.8 72.3536 303.237 72.247 305.469 72.3852C305.489 73.7415 305.514 75.0459 305.457 76.4024C303.155 76.5532 299.82 76.454 297.437 76.4505L297.447 72.405L293.472 72.4215L293.47 68.3501Z" fill="black"/>
<path d="M313.617 92.4689L321.528 92.4624L321.516 96.462C319.288 96.4694 315.774 96.3656 313.655 96.5101L313.602 96.418L313.617 92.4689Z" fill="black"/>
<path d="M309.528 96.4237L313.601 96.418L313.654 96.51L313.595 100.499L309.528 100.497V96.4237Z" fill="black"/>
<path d="M273.411 80.4414L277.343 80.4355L277.325 84.3876L273.405 84.388L273.411 80.4414Z" fill="black"/>
<path d="M192.948 341.704C200.219 341.516 208.278 341.669 215.588 341.669L258.905 341.675L390.007 341.714L389.997 357.78L385.951 357.755L385.943 365.864L369.793 365.866L369.797 357.794H365.745L365.72 353.7L357.66 353.686L357.654 349.778L341.696 349.788L341.694 345.809L334.329 345.795L301.512 345.789L301.504 349.78L285.579 349.772L285.563 353.694L277.484 353.7L277.458 357.792L273.376 357.755L273.374 365.862L257.27 365.868L257.252 357.788H253.246L253.226 353.707L245.181 353.705L245.173 349.79L233.068 349.788L233.054 345.803L200.998 345.773L201.002 349.776L189 349.799L188.973 353.727L184.921 353.729L184.912 357.777L181.002 357.786C180.895 367.083 180.996 376.585 180.996 385.897L176.928 385.905L176.928 353.713L180.859 353.692L180.91 349.748L184.896 349.701L184.909 345.709L192.94 345.671L192.948 341.704Z" fill="black"/>
<path d="M52.7771 48.9637C54.5404 48.7974 54.9055 49.9667 55.9482 50.9321C57.579 52.4419 60.2911 52.323 62.3364 52.055C62.3364 52.055 62.9274 52.5397 62.9848 52.5868C64.5003 52.3067 66.6695 53.4868 68.0427 54.2028C69.5936 55.0117 70.6398 56.9844 72.6952 57.0335C73.4758 57.0522 75.0557 57.7034 75.3572 58.4939C75.3462 59.0382 75.16 59.1752 74.818 59.6025L74.6563 59.8022C73.5257 61.2196 69.8272 61.0564 71.2888 63.6239C71.1294 64.0328 70.0339 65.0943 69.708 65.2767C68.46 65.9751 68.2743 67.2937 67.6672 68.5584C66.5166 71.2719 65.1394 69.884 63.0756 70.325C59.7026 71.0462 56.2071 72.2569 52.8186 72.9272C51.7924 73.1302 51.2341 72.1472 49.7082 72.5527C47.3719 73.1734 44.6885 73.6025 42.2798 73.9348C40.3585 74.146 38.3055 73.8103 36.4423 74.1699C35.0815 74.4326 33.5858 75.0032 32.2372 75.3642C30.6084 75.8647 26.635 74.8856 24.9053 74.7761C23.916 74.7135 21.8763 75.8845 20.6189 75.1944C20.3255 75.12 19.7735 74.9031 19.4805 74.897C17.8915 74.8856 17.2693 73.3406 16.2719 72.3087C14.4516 70.4251 11.8455 70.4159 11.7159 67.4294C11.6248 65.3322 11.7934 63.8171 12.3118 61.7525C12.5616 60.7575 12.6357 59.114 13.4616 58.3944C14.1507 57.8864 15.5552 57.7392 16.2564 57.1515C16.6173 56.9322 17.871 54.0173 17.9746 54.0947C18.2331 54.288 22.7973 50.6574 21.8618 50.9307C23.7552 50.3777 25.544 50.2266 27.5185 50.0833C28.7021 49.9975 29.9144 50.8671 31.0954 50.9277C31.1828 50.9291 32.2518 50.4243 32.281 50.4402C33.7063 51.2159 35.1657 52.2142 36.7751 52.5416C37.8415 52.753 38.058 51.1205 39.1953 51.2451C41.1498 51.4595 42.5703 49.5836 44.1587 49.4432C45.3994 49.3335 47.6308 50.248 48.9438 49.7284C49.96 49.3262 51.6852 48.9299 52.7771 48.9637Z" fill="#FE00FF"/>
<path d="M281.355 221.116C291.995 221.108 302.891 221.006 313.509 221.159L313.503 225.153L309.587 225.146C309.455 225.815 309.506 228.343 309.506 229.171L285.39 229.203V225.153L281.325 225.144L281.355 221.116Z" fill="black"/>
<path d="M48.2991 132.689L56.227 132.682L56.2401 140.718L20.0703 140.716L11.9766 140.723L11.9906 136.688C24.024 136.546 36.2285 136.7 48.2892 136.633L48.2991 132.689Z" fill="black"/>
<path d="M341.724 152.718L345.81 152.716L345.807 156.778L349.795 156.773L349.777 164.761L353.701 164.76L353.695 168.768L357.821 168.77L357.804 172.908L341.712 172.912L341.724 152.718Z" fill="black"/>
<path d="M36.1782 229.134L44.2464 229.142L44.2674 249.047C43.5659 249.46 37.3771 249.279 36.1719 249.267L36.1782 229.134Z" fill="black"/>
<path d="M36.1582 261.269L44.2767 261.274L44.2602 281.147C43.6831 281.571 37.3226 281.345 36.2002 281.327L36.1582 261.269Z" fill="black"/>
<path d="M24.1446 229.14L32.0694 229.136L32.0702 249.274L24.1222 249.277C24.094 242.566 24.1014 235.853 24.1446 229.14Z" fill="black"/>
<path d="M24.1133 261.271L32.0504 261.282L32.0475 281.345L24.1288 281.353L24.1133 261.271Z" fill="black"/>
<path d="M24.1023 84.3412C30.8277 84.2884 37.5536 84.2868 44.279 84.3361L44.2512 88.4361C49.4728 88.4157 54.9304 88.5074 60.1213 88.3916L60.1101 92.0104L59.9553 92.4338C58.7198 92.5767 55.939 92.5048 54.5758 92.5044L44.1862 92.4972L44.1828 88.5194L24.0723 88.539C24.0801 87.1675 24.0617 85.7034 24.1023 84.3412Z" fill="black"/>
<path d="M297.419 196.97L301.592 196.964C301.567 199.634 301.573 202.305 301.612 204.975L305.593 204.983C305.567 207.652 305.557 210.32 305.561 212.987L309.569 212.984L309.573 217.131L297.386 217.133L297.419 196.97Z" fill="black"/>
<path d="M289.415 192.949L293.468 192.946L293.464 217.139H289.428L285.4 217.152L285.412 209.046L289.354 209.032L289.415 192.949Z" fill="black"/>
<path d="M152.696 80.4726L164.836 80.4712L164.826 84.3752C166.672 84.3728 180.264 84.2242 180.974 84.5464L180.977 88.5426L164.785 88.5334L164.793 84.3976C160.809 84.3948 156.67 84.4462 152.698 84.3874L152.696 80.4726Z" fill="black"/>
<path d="M345.706 176.875L357.819 176.882L357.796 180.98L353.691 180.974L353.697 184.899L349.791 184.902L349.789 192.966L345.826 192.968C345.59 187.808 345.698 182.087 345.706 176.875Z" fill="black"/>
<path d="M36.1784 293.429C38.8742 293.417 41.5703 293.421 44.2661 293.44C44.2347 297.494 44.2292 301.549 44.2494 305.604L36.166 305.594L36.1784 293.429Z" fill="black"/>
<path d="M24.1008 293.419L32.0992 293.444C32.1221 297.431 32.118 301.416 32.087 305.4C31.4671 305.803 25.1368 305.614 24.0605 305.609C24.1457 301.602 24.0947 297.437 24.1008 293.419Z" fill="black"/>
<path d="M140.732 369.814L144.71 369.812L144.71 381.908L140.747 381.914L140.728 385.898L136.713 385.91L136.732 373.85L140.722 373.776L140.732 369.814Z" fill="black"/>
<path d="M212.968 237.117L217.115 237.125L217.113 257.3L212.952 257.307L212.968 237.117Z" fill="black"/>
<path d="M325.605 156.829L329.638 156.821L329.642 168.802L333.654 168.799L333.637 172.901L325.581 172.911L325.605 156.829Z" fill="black"/>
<path d="M325.561 176.888H333.664L333.638 184.909L329.636 184.916L329.618 189.045L325.582 189.045C325.527 185.035 325.567 180.906 325.561 176.888Z" fill="black"/>
<path d="M180.875 305.444L189.009 305.463L188.99 313.535L180.851 313.545L180.875 305.444Z" fill="black"/>
<path d="M229.091 305.447L237.241 305.451L237.233 313.507L229.097 313.534L229.091 305.447Z" fill="black"/>
<path d="M212.995 305.453L221.122 305.447L221.071 313.493L212.97 313.501L212.995 305.453Z" fill="black"/>
<path d="M245.194 305.451L253.223 305.445L253.213 313.517L245.177 313.529L245.194 305.451Z" fill="black"/>
<path d="M196.894 305.465C199.61 305.445 202.325 305.441 205.04 305.449L204.977 313.456C203.458 313.63 198.643 313.522 196.88 313.53L196.894 305.465Z" fill="black"/>
<path d="M124.651 277.437L128.614 277.412C128.654 282.759 128.657 288.107 128.624 293.454L124.596 293.45L124.651 277.437Z" fill="black"/>
<path d="M148.664 365.826L152.73 365.818L152.701 377.976L148.664 377.986C148.616 373.956 148.659 369.861 148.664 365.826Z" fill="black"/>
<path d="M60.2918 253.219L64.3556 253.217C64.3729 257.251 64.3684 261.284 64.3421 265.316L60.2812 265.326L60.2918 253.219Z" fill="black"/>
<path d="M60.2868 285.408H64.3429L64.326 297.531L60.2773 297.521L60.2868 285.408Z" fill="black"/>
<path d="M84.3779 285.411L88.406 285.415C88.5208 289.28 88.4588 293.657 88.396 297.508L84.3787 297.526L84.3779 285.411Z" fill="black"/>
<path d="M72.3594 88.4961C76.3849 88.4247 80.4115 88.4251 84.437 88.4975L84.4406 92.5002L72.3696 92.4841L72.3594 88.4961Z" fill="black"/>
<path d="M72.4018 253.209L76.3704 253.207L76.3602 265.335L72.3965 265.349L72.4018 253.209Z" fill="black"/>
<path d="M72.4055 285.404L76.3652 285.41L76.3489 297.535L72.4043 297.525L72.4055 285.404Z" fill="black"/>
<path d="M11.9551 80.4683L24.1315 80.4698L24.1023 84.3414L11.9586 84.345L11.9551 80.4683Z" fill="black"/>
<path d="M84.4316 84.3626L92.4852 84.3096L92.4687 88.5219C89.9764 88.5186 86.8772 88.6044 84.4371 88.4974L84.4316 84.3626Z" fill="black"/>
<path d="M233.14 297.474L237.249 297.478L237.245 301.506L233.486 301.502H229.108L229.101 297.49L233.14 297.474Z" fill="black"/>
<path d="M180.889 297.487C183.599 297.503 186.31 297.497 189.02 297.472L188.991 301.503L180.876 301.5L180.889 297.487Z" fill="black"/>
<path d="M212.993 297.458C215.698 297.484 218.403 297.491 221.108 297.482L221.075 301.505L212.966 301.515L212.993 297.458Z" fill="black"/>
<path d="M245.202 297.466L253.206 297.488L253.208 301.508L245.188 301.502C245.174 300.157 245.18 298.811 245.202 297.466Z" fill="black"/>
<path d="M197.007 297.466L204.992 297.492C204.996 298.758 205.041 300.285 204.896 301.512L196.872 301.514C196.862 300.497 196.772 298.342 197.007 297.466Z" fill="black"/>
<path d="M74.8076 60.3335C76.7686 61.1067 78.7338 63.2778 75.5447 64.497C75.0663 63.7599 74.9291 63.5051 74.3165 62.8976C73.6248 63.0073 73.0489 63.0342 72.5264 62.5045L72.6259 62.03C73.4108 61.0761 73.7671 60.9265 74.8076 60.3335Z" fill="#FE00FF"/>
</g>
<defs>
<clipPath id="clip0_252_388">
<rect width="402" height="402" fill="white"/>
</clipPath>
</defs>
</svg>