<svg width="402" height="326" viewBox="0 0 402 326" fill="none" xmlns="http://www.w3.org/2000/svg">
<rect width="402" height="326" fill="#FF0000"/>
<path d="M234.558 17.0205L247.959 17.0312L248.029 20.6289L255.198 20.6309L255.207 24.0693L258.519 24.0645L258.589 27.6641L262.002 27.665L262.025 34.75L265.71 34.7031L265.689 44.626L269.188 44.6006L269.246 51.6152L272.65 51.5039L272.807 55.0557L276.204 55.0576L276.266 51.665L279.754 51.6758L279.717 48.1689L290.168 48.2432L290.13 51.7197L293.483 51.752L293.518 61.9385L290.252 61.9541L290.333 68.6611L293.77 68.6641L293.844 72.3291L297.89 72.3271L297.996 75.8818L301.437 75.8594L301.462 79.1602L304.904 79.1592C304.897 81.4755 304.864 83.8514 304.889 86.1621L308.946 86.1309C308.93 94.2248 309.168 102.254 309.146 110.313L305.485 110.314L305.505 117.409C300.988 117.412 296.278 117.351 291.779 117.443L291.718 113.88C288.078 113.885 284.318 113.935 280.688 113.889L280.607 110.251L273.779 110.244L273.776 106.522L270.144 106.521L270.205 110.257L273.716 110.222L273.756 113.793L277.426 113.818L277.403 117.452L280.803 117.465L280.81 121.053L284.229 121.041L284.35 124.547L287.74 124.606L287.752 128.126L291.261 128.124L291.281 131.912L294.646 131.89L294.681 137.58L297.809 137.511L297.979 139.827L301.304 139.854C301.279 141.184 301.199 142.63 301.242 143.955C301.301 145.841 300.682 147.692 303.152 147.729C303.683 148.487 303.499 150.592 303.49 151.64L306.997 151.65C306.931 155.063 306.912 158.476 306.946 161.889L310.278 161.905L310.312 172.041L313.984 172.014C313.937 188.104 313.73 204.815 314 220.867L310.024 220.865C310.013 223.787 310.018 226.71 310.036 229.632L306.745 229.672C306.736 233.117 306.65 236.894 306.779 240.317L303.239 240.298L303.259 246.425L300.12 246.445L300.118 251.766C299.087 251.754 297.985 251.72 296.961 251.759V257.689L293.663 257.755L293.672 261.185C292.593 261.234 291.389 261.262 290.331 261.373L290.338 267.215L286.712 267.232L286.714 270.511L283.387 270.597L283.396 273.689L279.896 273.676L279.878 277.008L276.489 277.021L276.508 280.429L279.727 280.431L279.686 286.688L283.076 286.646L283.037 293.303L286.276 293.305C286.27 298.265 286.218 303.305 286.268 308.258C281.787 308.16 277.303 308.151 272.822 308.232C272.802 306.299 272.815 304.256 272.738 302.334L268.603 302.291C268.63 301.425 268.791 299.826 268.467 299.112L268.145 299.069C267.777 299.019 267.664 298.993 267.304 298.87C266.753 297.712 267.349 297.075 266.669 296.477C265.703 296.433 265.03 296.431 264.071 296.465L264.04 292.888C263 292.899 261.612 293.001 260.651 292.725L260.389 292.407C260.468 291.478 260.54 291.162 260.368 290.265C259.811 289.596 260.146 289.763 259.414 289.603L258.85 290.004C258.396 290.784 258.551 291.482 258.594 292.416L252.971 292.382L252.981 296.029L244.563 295.976L244.596 299.464L231.196 299.469L231.176 303.291C215.916 303.042 200.016 303.209 184.729 303.271L184.719 299.593C178.289 299.484 171.47 299.612 165.012 299.63L165.029 296.022C161.657 295.8 157.488 295.894 154.11 295.982L154.151 301.552L150.536 301.563L150.553 306.879L147.167 306.761L147.16 309.974L143.579 310.012L143.644 312.964L133.712 312.983L133.708 309.903L130.074 309.896L130.058 303.264L133.501 303.2L133.491 295.628L136.892 295.717L136.835 287.9L140.136 287.837L140.071 284.335L133.53 284.289L133.581 280.878L129.651 280.894L129.587 277.294L125.915 277.26L125.881 274.247L122.412 274.172L122.393 270.694L118.347 270.73L118.273 267.303L114.852 267.342L114.838 263.389C113.691 263.314 112.418 263.313 111.259 263.288L111.233 259.741L107.264 259.807L107.275 253.391C106.16 253.334 104.967 253.323 103.844 253.296L103.805 246.615L100.429 246.636L100.41 239.624L97.6494 239.595L97.5156 232.717L94.7061 232.732L94.707 223.778L91.9658 223.797C91.9384 220.589 91.9327 217.381 91.9492 214.174L88.8643 214.189L88.8701 172.104L92.1729 172.138C92.0763 168.796 92.1527 165.268 92.1738 161.912L95.5947 161.892L95.5977 154.605L98.7324 154.594C98.6778 152.188 98.6589 149.781 98.6748 147.374L101.713 147.318L101.752 139.797L105.125 139.726C105.036 137.069 105.091 134.529 105.141 131.872L108.504 131.822L108.515 128.068L111.97 128.07L112.036 124.505L115.519 124.514L115.57 121.01L118.971 120.893L118.98 117.407L111.982 117.385L111.968 121.059C107.719 121.017 103.47 121.019 99.2217 121.063L99.1445 117.421L96.0518 117.412C96.0445 115.028 96.0154 112.644 95.9648 110.261L92.5342 110.282L92.6064 93.0566L95.9971 93.0703C96.0784 90.9109 96.0542 88.5367 96.0732 86.3594L99.2949 86.3174L99.3477 82.8545L102.476 82.7744L102.477 79.3848L105.711 79.4053L105.771 76.0039L109.128 75.9492L109.175 72.3252L112.661 72.3232L112.636 65.0654L109.564 65.042L109.561 55.2676L112.925 55.2266L113.013 51.7324L116.486 51.708L116.479 48.1406C118.537 48.2066 120.869 48.129 122.95 48.1045L122.974 51.7451L126.387 51.6973L126.425 55.0967L129.779 54.918L129.842 58.2881L133.211 58.2656L133.293 51.668L136.912 51.7148L136.906 41.7051L140.417 41.709C140.493 39.3742 140.449 37.0057 140.432 34.668L143.952 34.708C143.998 32.3611 143.999 30.013 143.955 27.666L147.357 27.6357L147.369 24.1113L150.872 24.1299L150.908 20.6533L160.604 20.626L160.623 17.0322C165.097 17.0003 169.572 16.9937 174.046 17.0127L174.056 13.584C193.991 13.4854 214.678 13.8936 234.535 13.459L234.558 17.0205ZM146.909 284.237C146.963 285.838 147.042 287.49 147.058 289.086L143.473 289.095L143.484 295.612L140.067 295.61L140.108 299.296L136.775 299.27L136.76 306.813L140.479 306.764C140.505 305.621 140.515 304.476 140.508 303.334L143.858 303.348L143.895 296.714L147.142 296.66C147.173 294.518 147.179 292.312 147.247 290.179L150.735 290.165L150.698 284.267L146.909 284.237ZM276.152 283.105C275.547 282.92 275.512 282.957 274.9 282.995C273.223 283.244 271.258 283.673 269.617 283.659C269.61 285.502 269.561 287.515 269.62 289.342L272.698 289.317L272.723 293.778C273.708 293.751 275.369 293.751 276.299 293.636L276.295 298.786C277.238 298.75 278.497 298.546 279.202 299.024C279.594 299.709 279.479 300.296 279.456 301.107L279.493 301.964C280.44 302.816 281.85 302.391 283.094 302.391L283.131 295.744L279.758 295.683L279.717 289.36L276.501 289.369C276.508 287.789 276.83 284.148 276.152 283.105ZM191.282 102.786C186.627 102.706 181.971 102.709 177.316 102.794L177.284 106.472L170.361 106.391C170.344 107.444 170.279 108.936 170.341 109.954L163.922 109.983L163.941 113.615C161.74 113.628 159.465 113.61 157.271 113.659L157.266 117.158L150.391 117.135L150.443 120.849L146.88 120.841L146.884 124.413L143.266 124.432L143.286 127.861L139.887 127.888L139.938 131.683L136.136 131.637L136.052 137.921L132.698 137.87L132.784 143.485L129.207 143.469L129.222 147.137L125.598 147.136L125.595 154.501L122.276 154.587C122.289 158.044 122.267 161.556 122.316 165.008L118.673 165.04C118.608 169.901 118.579 174.762 118.585 179.623L115.062 179.599C115.04 191.062 114.999 202.772 115.151 214.239L118.778 214.246C118.727 218.442 118.715 222.641 118.741 226.839L121.645 226.859L121.674 235.201L125.102 235.215C125.095 236.716 124.975 240.715 125.23 241.921C125.63 242.107 125.744 242.145 126.169 242.268C126.514 243.553 126.246 246.304 126.271 247.803L129.594 247.751L129.613 252.793L133.241 252.77L133.287 257.268L136.422 257.254L136.433 261.507L140.068 261.447L140.098 264.782L143.244 264.755L143.276 268.572L146.903 268.563L146.882 271.959H150.308L150.359 275.149L154.201 275.167L154.138 278.536L157.611 278.554L157.622 281.767L164.552 281.599L164.564 284.766C165.74 284.729 166.833 284.564 167.871 285.035C168.689 286.073 167.435 286.96 169.345 287.101C171.2 287.239 173.407 287.03 175.285 286.998L175.432 290.167L183.309 290.181L183.321 293.5C186.88 293.518 190.439 293.475 193.996 293.375L194.039 296.571C197.718 296.639 230.22 296.957 231.464 296.479L231.625 296.276L231.663 293.3L241.704 293.253L241.688 289.943L249.827 289.95L249.895 286.851L256.78 286.826L256.81 283.824L261.062 283.815L261.137 281.059L266.324 281.098L266.309 277.919L269.563 277.917L269.611 274.784L273.194 274.805C273.244 274.011 273.285 273.217 273.319 272.424L276.775 272.396L276.748 268.407L280.352 268.437L280.361 264.551L283.754 264.521L283.77 261.351L287.179 261.323L287.301 257.787L290.544 257.753L290.404 252.779L294.164 252.752L294.198 246.711L297.38 246.684L297.344 241.136L299.9 241.1C299.971 238.835 300.014 236.856 299.948 234.592L303.232 234.525V224.889L306.644 224.9C306.634 222.692 306.374 213.782 307.097 212.376C307.727 212.251 307.937 212.228 308.583 212.188C308.676 212.092 308.77 211.995 308.86 211.897C309.035 201.886 308.914 191.791 308.948 181.771C308.953 180.76 308.996 179.962 308.653 179.382C308.114 179.315 307.573 179.266 307.031 179.232C306.354 178.242 306.804 169.873 306.85 168.119L303.35 168.196C303.316 164.887 303.304 161.577 303.313 158.268L300.036 158.259C300.052 156.384 300.224 153.488 299.866 151.771L299.567 151.488L298.908 151.578C297.863 150.557 298.196 148.601 298.146 147.168L294.468 147.162L294.422 139.255L291.605 139.18L291.621 135.555L287.891 135.525L287.867 131.669L284.425 131.623L284.389 128.067L280.905 128.092L280.823 124.447L277.555 124.43L277.458 121.017L273.958 120.986L273.872 117.228L267.086 117.26L267.034 113.758L260.051 113.81L260.058 110.063C257.68 110.011 255.301 109.985 252.921 109.984L252.9 106.536L246.16 106.547L246.126 102.792C241.437 102.696 236.747 102.671 232.056 102.718L232.037 99.2744L191.281 99.2471L191.282 102.786ZM231.819 110.095C236.595 110.14 241.37 110.123 246.146 110.045L246.15 113.715C248.383 113.764 250.677 113.753 252.914 113.768L252.927 117.414C255.189 117.427 257.451 117.386 259.713 117.291L259.792 120.987L263.45 121L263.455 124.315C264.534 124.316 265.667 124.356 266.753 124.377L266.805 128.065L273.752 128.034L273.8 131.662L277.407 131.673L277.405 135.729L280.719 135.775L280.698 139.696L284.021 139.687L284.046 143.477L287.817 143.5L287.852 150.785L291.285 150.806L291.357 158.118L294.825 158.116L294.853 165.501L297.872 165.469C297.84 170.146 297.833 174.824 297.854 179.502L301.423 179.474C301.332 191.002 301.322 202.531 301.39 214.06L297.815 214.026C297.829 218.258 297.82 222.491 297.79 226.723C296.691 226.736 295.535 226.791 294.434 226.827C294.409 229.554 294.422 232.284 294.475 235.011L290.979 235.061L291 241.56L287.385 241.601L287.407 248.266L283.768 248.293L283.754 251.754L280.068 251.786L280.103 257.767L276.753 257.777L276.75 261.205L273.201 261.228L273.16 264.29L269.801 264.257L269.783 267.292L266.184 267.347L266.259 270.663L262.482 270.672L262.474 274.351C260.083 274.303 257.573 274.34 255.173 274.34L255.193 277.955L249.854 278.019L249.852 281.34L240.924 281.311L240.91 284.679C239.373 284.658 232.323 284.333 231.407 285.013L231.344 285.806C231.38 286.726 231.416 286.905 231.21 287.782C230.025 288.236 197.527 287.916 193.806 287.916L193.802 284.665C190.4 284.624 186.89 284.697 183.48 284.727L183.43 281.408L175.32 281.405L175.276 278.291L168.219 278.322L168.21 274.731L161.203 274.723L161.169 271.13L157.696 271.144L157.662 267.616L154.108 267.577L154.081 264.549L150.544 264.564L150.477 261.364L146.878 261.312L146.865 255.681L143.419 255.622L143.353 251.925L140.083 251.901L140.069 248.499L136.568 248.48C136.486 246.576 136.517 244.496 136.508 242.578L133.034 242.621L133.05 235.781L129.636 235.757L129.59 225.667L125.998 225.614L125.944 214.239L122.54 214.205C122.466 203.197 122.459 192.189 122.518 181.181L125.643 181.175C125.764 176.925 125.779 172.673 125.688 168.422L129.383 168.396L129.431 158.148L132.807 158.147L132.794 151.028L136.229 151.026L136.257 147.304L139.821 147.213L139.836 143.486L143.297 143.482L143.376 137.868L146.674 137.851L146.824 135.305L150.281 135.334L150.32 131.535L153.7 131.551L153.67 127.951L157.264 127.906L157.29 124.382L160.711 124.39L160.716 120.896L164.302 120.91L164.333 117.198L170.465 117.151L170.512 113.569L177.251 113.598L177.295 110.095C181.972 110.022 186.65 110.023 191.326 110.101L191.351 106.356L231.808 106.354L231.819 110.095ZM229.084 113.372C217.606 113.432 206.126 113.433 194.646 113.377L194.662 117.076C188.85 117.039 183.038 117.035 177.227 117.064L177.222 120.818L173.75 120.839L173.785 124.285L166.832 124.287L166.83 127.914H163.697L163.795 131.568L157.112 131.637L157.096 135.339L153.783 135.33L153.806 138.273L150.246 138.354L150.251 143.487L146.78 143.476L146.667 147.116L143.161 147.131C143.169 148.482 143.147 149.946 143.191 151.286L139.601 151.411L139.605 158.228L136.11 158.236C136.08 160.429 136.083 162.622 136.119 164.814L132.684 164.77C132.761 167.971 132.791 171.173 132.773 174.375L129.406 174.378L129.403 217.887L132.949 217.911C132.954 221.649 132.905 225.533 132.999 229.258L136.233 229.244C136.225 231.377 136.181 233.623 136.218 235.745L139.782 235.721C139.774 237.926 139.792 240.132 139.836 242.338L143.242 242.333L143.23 248.436L146.862 248.44L146.825 252.229L150.048 252.153L150.164 255.701L153.915 255.703L153.896 259.414C154.839 259.407 156.002 259.267 156.765 259.707C157.259 260.323 157.328 260.464 157.687 261.181C158.613 261.868 159.736 261.632 160.984 261.598L160.983 264.839H164.639L164.643 268.525L171.298 268.464L171.372 271.885L178.231 271.846L178.22 275.278L186.757 275.22L186.769 278.586L196.311 278.633L196.281 281.739C207.067 281.592 217.856 281.553 228.642 281.623C228.669 280.592 228.689 279.561 228.705 278.529L238.503 278.581L238.482 275.156C241.266 275.145 244.129 275.167 246.903 275.108L246.978 271.789L253.312 271.806L253.314 268.426L256.875 268.364L256.878 264.408C258.684 264.422 260.652 264.395 262.444 264.461L262.508 261.459L266.599 261.536L266.544 258.197L269.991 258.186L270.039 255.019L273.736 255.03L273.774 251.671L276.968 251.654L276.963 246.595L280.564 246.504L280.535 241.149L283.967 241.046L284.053 234.573L287.647 234.462C287.634 233.051 287.46 227.973 287.824 226.88C289.012 226.356 289.032 227.162 289.712 226.372C290.002 224.382 289.481 222.441 289.769 220.852C290.36 220.652 290.546 220.673 291.151 220.65C291.845 219.716 291.505 212.31 291.517 210.564L294.458 210.566C294.395 200.887 294.393 191.207 294.456 181.527L291.63 181.505C291.657 178.221 291.843 171.859 290.798 168.992C290.39 168.928 290.018 168.864 289.612 168.783C289.082 167.803 289.814 166.779 289.397 165.759C288.953 165.671 288.563 165.604 288.119 165.536C287.562 164.533 287.917 159.337 287.888 157.746L284.506 157.77L284.468 151.302L280.821 151.313L280.814 147.11L277.562 147.108L277.539 143.323L274.013 143.307L273.939 137.466C272.874 137.51 271.75 137.709 270.889 137.198C270.49 136.647 270.404 136.489 270.089 135.879C269.162 135.285 268.437 135.472 267.22 135.499L267.231 131.578L263.632 131.579L263.575 128.046L260.133 128.06L259.976 124.418L249.768 124.319L249.733 120.849L246.198 120.827L246.15 117.042C240.573 116.969 234.677 116.902 229.108 117.013L229.084 113.372ZM215.575 278.315L208.286 278.312L208.279 259.838L215.58 259.795L215.575 278.315ZM183.768 250.067C183.776 251.257 183.965 254.896 183.411 255.689C182.66 256.122 182.932 255.998 181.963 255.982C181.164 256.81 181.477 260.371 181.509 261.606L177.743 261.6C177.752 263.402 177.947 265.46 177.793 267.232L177.451 267.484L171.499 267.471C171.357 264.816 171.414 262.08 171.433 259.417L175 259.38L174.977 254.892L178.132 254.826L178.165 250.095L183.768 250.067ZM246.885 251.817L250.003 251.704L250.051 258.333L253.22 258.364C253.22 260.797 253.206 263.227 253.181 265.659C251.436 265.714 249.645 266.004 248.204 265.113C247.95 264.51 247.925 264.429 247.542 263.864C246.869 263.493 245.831 263.626 245.02 263.646L245.081 257.978L241.855 257.99L241.854 248.715L246.864 248.662L246.885 251.817ZM205.528 117.1C208.772 116.998 212.096 117.058 215.349 117.081L215.351 133.546L211.788 133.552C211.797 151.71 211.563 170.498 211.862 188.6L215.31 188.604L215.312 192.113L218.861 192.147L218.907 194.763L270.585 194.741V198.211L266.537 198.179L266.558 200.869C261.076 200.865 219.809 200.627 218.814 201.11C218.901 203.613 217.271 203.112 215.208 203.071L215.276 206.461L208.107 206.524L208.104 214.049L204.431 214.033L204.51 220.609L201.086 220.577L201.108 226.705L197.536 226.683L197.598 233.497L194.434 233.479L194.454 237.493C193.332 237.457 192.123 237.47 190.994 237.459L190.993 241.014L184.269 241.027L184.286 229.6L187.857 229.611L187.901 222.37L191.288 222.366L191.229 217.266L194.645 217.272C194.59 214.99 194.615 212.629 194.617 210.34L197.919 210.355L197.886 192.189L201.265 192.188L201.21 188.673L204.635 188.624C204.63 182.159 204.349 118.125 204.784 117.198L205.528 117.1ZM159.862 232.624L156.276 232.631L156.295 235.992L152.349 235.884L152.354 239.188L149.863 239.182L143.391 239.207L143.325 232.966L146.843 232.928L146.8 229.593L153.623 229.634L153.667 226.446L159.838 226.436L159.862 232.624ZM270.207 226.712L273.412 226.693L273.507 229.888C275.796 229.867 278.083 229.813 280.37 229.727L280.381 237.258C279.102 237.401 275.161 237.316 273.69 237.323C273.665 236.464 273.76 235.78 273.282 235.113C272.482 234.692 271.302 234.896 270.334 234.95L270.348 231.672L263.985 231.701L263.987 223.543L270.182 223.526L270.207 226.712ZM112.007 139.877L112.062 143.513L115.581 143.495L115.556 147.139L112.009 147.124L112.007 143.53L108.336 143.536L108.381 151.472L105.132 151.541L105.127 158.224L101.488 158.255L101.55 165.074L98.6338 165.189C98.7213 169.993 98.7332 174.798 98.6709 179.603L95.3955 179.588L95.4443 209.483L98.9854 209.474C99.0422 207.438 99.0078 201.865 99.71 200.293C100.167 200.11 100.381 200.19 100.878 200.246C102.085 199.137 101.708 196.335 101.669 194.711L105.145 194.713C105.135 196.774 105.1 198.902 105.126 200.956L108.532 200.875L108.553 187.488L111.817 187.484C111.752 181.297 111.764 175.109 111.854 168.923L115.249 168.913C115.212 165.295 115.198 161.677 115.208 158.06L118.778 158.046C118.868 154.471 118.902 150.894 118.88 147.318L122.405 147.274L122.396 143.514L115.583 143.495L115.566 139.866L112.007 139.877ZM108.496 204.926L111.921 204.929C111.93 203.596 111.869 202.212 111.829 200.875H108.532L108.496 204.926ZM150.054 203.114C144.332 203.049 138.61 203.05 132.888 203.119C132.979 200.334 133.018 197.548 133.006 194.762L150.066 194.72L150.054 203.114ZM290.964 200.682L280.981 200.655C278.654 200.713 276.329 200.755 274.001 200.78C273.96 197.719 274.008 194.559 274.013 191.489C277.138 191.522 280.366 191.465 283.5 191.45C285.97 191.399 288.486 191.401 290.961 191.378L290.964 200.682ZM204.487 192.434C204.481 194.981 204.499 197.528 204.542 200.074C206.924 200.098 209.308 200.105 211.692 200.098L211.723 195.424L208.058 195.462L208.032 192.397L204.487 192.434ZM150.022 161.876L156.228 161.841L156.295 165.245L159.814 165.221L159.867 170.481L153.349 170.478L153.323 167.955L146.689 167.967L146.693 164.987L143.209 164.988L143.224 158.189L150.047 158.174L150.022 161.876ZM280.846 154.875L280.948 161.463C278.566 161.428 276.184 161.43 273.802 161.467L273.843 164.967L270.239 164.94L270.223 167.961C269.59 168.443 264.868 168.251 263.771 168.248L263.764 161.642L267.211 161.64L267.227 158.066C269.461 158.165 271.751 158.152 273.992 158.168L273.997 154.808L280.846 154.875ZM173.629 131.651L177.026 131.582C177.018 133.618 177.045 135.654 177.109 137.689L180.612 137.716L180.608 147.038C179.869 147.14 177.925 147.108 177.088 147.115L177.021 143.47L173.686 143.498L173.674 138.062L170.208 138.053L170.219 128.068L173.623 127.991L173.629 131.651ZM249.772 137.169L246.121 137.167L246.123 143.271L243.195 143.268L239.349 143.264L239.376 134.229L242.585 134.209L242.692 130.346L246.169 130.348L246.155 126.958L249.752 126.945L249.772 137.169ZM118.93 113.753L118.996 117.295L122.574 117.233L122.619 113.705L118.93 113.753ZM143.317 102.927C143.304 105.34 143.323 107.753 143.374 110.166L146.882 110.167L146.941 113.632L150.439 113.611L150.367 106.43L146.921 106.509L146.969 102.938L143.317 102.927ZM266.243 65.0635L266.236 68.4688L262.743 68.4746C262.725 72.9522 262.762 77.4304 262.853 81.9072C260.563 81.8995 258.274 81.9085 255.984 81.9346C255.964 79.7651 255.982 77.5955 256.039 75.4268L259.586 75.4326L259.488 68.4365L255.854 68.4023L255.862 71.7861L252.56 71.8506L252.646 78.3447L249.525 78.4053L249.534 82.0303L255.871 82.0225L255.86 85.7178L262.716 85.7295L262.741 88.9824L266.492 89.0166L266.499 92.7158L273.502 92.7207L273.493 96.2959L280.356 96.1797C280.291 97.6792 279.728 99.6626 281.433 99.8535L287.186 99.9014L287.337 103.399L294.431 103.437L294.418 106.865L298.037 106.846L298.114 110.452L301.466 110.429L301.521 103.406L305.344 103.359C305.403 98.816 305.297 94.0469 305.254 89.4863C304.082 89.3551 302.631 89.3693 301.43 89.3496L301.357 82.3916L298.234 82.3174L298.109 79.2568C296.75 79.2099 295.329 79.2111 293.962 79.1904L293.928 75.5C291.645 75.488 289.291 75.5431 287.004 75.5674L286.942 72.0762L280.358 72.1133L280.297 68.5254C278.314 68.4864 276.07 68.5688 274.064 68.6025L274.037 65.0469L266.243 65.0635ZM122.473 110.178L125.967 110.16L126.006 106.55L122.432 106.503L122.473 110.178ZM263.158 99.3779L263.153 102.967L259.666 102.954L259.616 106.572L263.197 106.581L263.215 103.114L266.784 103.158L266.758 99.3398L263.158 99.3779ZM160.61 58.0488C157.252 58.0391 153.894 58.0511 150.536 58.084L150.524 61.5684L143.506 61.5742L143.541 65.0234L140.004 65.0322L139.923 68.4873L133.095 68.4814L133.094 72.0762L126.177 72.0908L126.124 75.623L122.776 75.5625L122.797 79.1299L119.227 79.1641L119.234 82.6504L112.38 82.5781L112.392 86.1123L115.67 86.1406L115.649 99.8047L119.003 99.7559C119.177 95.2087 119.235 90.6575 119.176 86.1074L122.582 86.0752L122.527 92.7305L125.831 92.7168L125.816 99.8125L129.384 99.7715L129.406 106.574L132.798 106.562L132.842 103.271L139.904 103.29L139.867 99.7217L143.462 99.7168L143.473 96.1387L150.362 96.125L150.398 92.6943L157.234 92.7002L157.263 89.0615L163.685 89.0459L163.718 85.6475L170.459 85.6318L170.576 82.0273L173.829 81.9932L173.827 78.6826L177.245 78.6592C177.274 77.4952 177.505 72.4259 177.055 71.707L173.841 71.8057L173.823 68.3584C172.721 68.3104 171.526 68.3132 170.414 68.2939V64.8047L167.071 64.835L167.069 61.4941L160.624 61.4658L160.61 58.0488ZM119.003 99.7559L118.957 103.259L122.627 103.245L122.609 99.7373L119.003 99.7559ZM184.244 23.7949L184.255 27.4648L170.458 27.4492L170.508 31.0947C167.232 31.112 163.956 31.1039 160.68 31.0703L160.671 34.4863L157.003 34.5879L157.005 38.0713L154.065 38.1074L154.085 41.5L150.544 41.5049C150.51 45.8883 150.507 50.2718 150.534 54.6553L167.004 54.665L167.039 58.0547L170.438 58.0537L170.457 61.583L173.861 61.4756L173.858 64.9492L177.236 64.8945L177.244 68.3281L180.661 68.3408L180.709 81.8779L177.302 81.8652L177.269 85.4443L173.822 85.3955L173.794 88.7324C171.634 88.8285 169.258 88.8156 167.079 88.8438L167.044 92.4746L177.236 92.4844L177.255 88.9707C183.934 88.79 190.962 88.9022 197.668 88.9131L197.677 75.0781C194.386 75.0652 191.096 75.1037 187.807 75.1943L187.805 71.748L184.074 71.7607C184.195 68.3278 184.225 64.8916 184.164 61.457L187.795 61.4717L187.819 58.1592C196.732 58.0878 205.646 58.0702 214.56 58.1064L214.578 61.5879L218.25 61.5049L218.293 71.8477L214.635 71.8594L214.657 75.2451C211.249 75.1003 207.838 75.0715 204.427 75.1592L204.444 92.3779L208.094 92.3496L208.13 88.8828L221.84 88.8877L221.872 92.4893L235.473 92.5176L235.495 96.0596C238.748 96.0138 242.76 95.9338 245.965 96.1582L245.946 99.5449L252.81 99.501L252.829 96.0781C250.638 96.0527 248.276 95.9771 246.101 96.0889C246.033 94.9523 246.058 93.4716 246.044 92.3066L238.863 92.3047L238.856 88.8311L235.292 88.8252L235.267 85.2842L228.728 85.3535L228.689 81.8857L225.102 81.9365L225.088 78.2764L221.768 78.2324L221.702 71.6924L225.006 71.6865L225.013 65.0391L228.689 64.9893L228.653 61.4648L231.874 61.4629L231.89 58.1494C234.102 58.2303 236.473 58.2114 238.698 58.2295L238.723 54.6367L255.672 54.6699C255.697 52.4239 255.672 50.1364 255.67 47.8867L252.06 47.8838L252.072 38.0703L248.705 38.0693L248.623 34.4824L245.244 34.5059L245.219 31.1465L238.408 31.0898L238.412 27.4785L225.004 27.4883L225.011 23.7715L184.244 23.7949ZM122.822 68.5293C121.748 68.5277 120.493 68.4962 119.434 68.5391L119.405 72.2676L122.793 72.2324L122.822 68.5293ZM122.875 65.043L122.916 68.5156L129.702 68.5566L129.685 65.0576C127.439 65.0442 125.112 65.0015 122.875 65.043ZM191.083 61.46L191.078 68.3203L194.73 68.3066L194.713 64.9834L197.437 64.9043L197.484 68.2666L204.499 68.2998L204.521 64.9238C205.303 64.9068 207.147 64.8198 207.838 64.8896L207.876 68.3672L211.41 68.2764L211.394 61.4551L191.083 61.46ZM279.737 61.7178C279.767 62.8264 279.773 64.0232 279.83 65.1221C280.753 65.3787 282.288 65.2842 283.308 65.2715L283.298 61.8184C282.115 61.7671 280.92 61.6956 279.737 61.7178ZM262.556 65.1113L266.243 65.0635L266.293 61.4922L262.503 61.4756L262.556 65.1113ZM129.685 65.0576L133.263 65.0869L133.196 61.7002L129.667 61.666L129.685 65.0576ZM116.258 55.083L116.25 58.5273L119.44 58.5391L119.475 61.9668C121.79 61.9305 124.179 61.8632 126.488 61.8682L126.477 58.3398L123.064 58.3105L123.071 55.0518L116.258 55.083ZM283.092 55.127L286.498 55.0967C286.552 56.0851 286.589 57.3375 286.688 58.2998L283.219 58.3418L283.298 61.8184L286.789 61.9092L286.798 58.4482L290.12 58.4785C290.079 56.1729 290.039 54.026 290.13 51.7197L283.081 51.6738L283.092 55.127ZM143.724 48.083L140.278 48.0859L140.259 54.8604L136.669 54.8867L136.674 58.2363L133.211 58.2656C133.156 59.4545 133.075 60.5131 133.196 61.7002C135.458 61.8022 137.826 61.73 140.097 61.7012L140.245 58.2246L143.763 58.1562L143.779 51.4551L147.264 51.4619C147.353 47.0697 147.313 42.5072 147.332 38.1016C146.114 38.073 144.895 38.0581 143.676 38.0586L143.724 48.083ZM269.447 61.751L273.135 61.7266L273.142 58.3018L269.486 58.2686L269.447 61.751ZM266.055 54.7959C266.043 55.9568 266.012 57.1652 266.019 58.3213L269.486 58.2686C269.545 57.2059 269.533 55.9149 269.554 54.832L266.055 54.7959ZM262.467 47.8857L262.503 54.79L266.055 54.7959C266.123 52.5938 266.068 50.0983 266.07 47.873L262.467 47.8857ZM258.977 38.0977L259.001 47.9297L262.467 47.8857L262.444 38.0811L258.977 38.0977ZM163.88 20.4102C163.901 21.6461 163.949 22.7776 163.812 24.0088C161.205 23.7781 157.139 23.8561 154.426 23.877L154.387 27.4463L150.685 27.4902L150.721 31.1426L147.326 31.1533L147.332 38.1016C148.377 38.1745 149.753 38.1498 150.827 38.1611L150.78 34.585L154.082 34.5049L154.104 31.1436L157.125 31.1553L157.229 27.6172L164.056 27.5205L164.055 24.0557L177.269 23.9883L177.299 20.4932C172.885 20.4 168.307 20.4351 163.88 20.4102ZM251.812 27.4922L251.799 31.1143C252.726 31.1027 254.579 31.0023 255.389 31.25C255.246 33.151 255.348 36.0957 255.368 38.084L258.872 38.0469L258.916 31.0869L255.491 31.1084C255.423 30.0328 255.45 28.596 255.438 27.4902L251.812 27.4922ZM244.954 20.4395C240.412 20.4138 235.87 20.415 231.33 20.4434C231.321 21.6271 231.296 22.8506 231.308 24.0303C235.723 24.0357 240.378 24.1148 244.772 24.0303L244.788 27.5537C247.129 27.5632 249.471 27.5423 251.812 27.4922L251.801 23.8574C249.491 23.854 247.184 23.8646 244.877 23.8887L244.954 20.4395ZM163.813 24.0098H163.812H163.813ZM177.345 20.4473C183.389 20.5955 189.976 20.4654 196.052 20.46L231.33 20.4434L231.344 16.9609C213.939 17.1158 194.601 17.2552 177.271 16.9014L177.345 20.4473Z" fill="black"/>
</svg>