<svg width="339" height="67" viewBox="0 0 339 67" fill="none" xmlns="http://www.w3.org/2000/svg">
<path d="M327.221 41.7305C327.665 39.7217 327.723 38.1801 327.396 37.1056C326.836 35.1435 325.177 34.1625 322.421 34.1625C319.034 34.1625 316.406 35.599 314.538 38.472C313.557 39.9903 312.821 41.929 312.33 44.2882L307.951 64.9602H298L306.094 26.8397H315.729L314.538 32.4106C316.243 30.4485 317.761 29.0353 319.092 28.1711C321.475 26.6295 324.243 25.8586 327.396 25.8586C331.344 25.8586 334.345 26.8981 336.401 28.977C338.48 31.0325 339.017 34.4544 338.012 39.2429L332.547 64.9602H322.316L327.221 41.7305Z" fill="white"/>
<path d="M291.094 26.7696H301.219L293.126 64.9602H283L291.094 26.7696ZM294.037 13H304.162L302.2 22.2148H292.075L294.037 13Z" fill="white"/>
<path d="M273.624 57H281L279.376 65H272L273.624 57Z" fill="white"/>
<path d="M127.812 49.1455C127.695 49.9061 127.607 50.6084 127.549 51.252C127.49 51.8368 127.462 52.3632 127.462 52.8311C127.462 54.8202 128.047 56.3708 129.217 57.4824C130.445 58.594 132.054 59.1503 134.043 59.1504C135.038 59.1504 136.033 59.0329 137.027 58.7988C138.022 58.5647 140.5 57.0702 141 55.5703C141.001 55.5702 141.036 55.5665 141.1 55.5615C141.036 55.0009 141 54.4205 141 53.8193C141 49.9445 142.292 46.9545 144.875 44.8496C147.458 42.7448 151.118 41.6924 155.854 41.6924H165.685V38.3193C165.685 36.406 165.062 34.9235 163.818 33.8711C162.575 32.7708 160.876 32.2207 158.724 32.2207C156.763 32.2207 155.136 32.6508 153.845 33.5117C152.553 34.3728 151.787 35.5454 151.548 37.0283H142.794C143.224 33.2971 144.898 30.3304 147.816 28.1299C150.734 25.9294 154.466 24.8291 159.011 24.8291C163.842 24.8291 167.645 26.0495 170.42 28.4893C173.242 30.8811 174.653 34.1341 174.653 38.248V65.0127H165.971V58.124H165.794C165.41 60.1505 164.395 61.8256 162.742 63.1475C160.59 64.8695 157.719 65.7304 154.132 65.7305C150.066 65.7305 146.86 64.6537 144.516 62.501C144.124 62.1411 143.766 61.7597 143.439 61.3584C141.527 63.0421 138.975 64.3105 138.975 64.3105C137.922 64.8371 136.693 65.2465 135.289 65.5391C133.885 65.8901 132.364 66.0654 130.726 66.0654C127.215 66.0654 124.201 65.0713 121.686 63.082C119.228 61.0343 118 57.9625 118 53.8672C118 52.3461 118.117 50.8542 118.351 49.3916L126.951 0.0703125L136.413 0L127.812 49.1455ZM155.997 47.2168C154.179 47.2168 152.72 47.7435 151.62 48.7959C150.52 49.8483 149.97 51.2359 149.97 52.958C149.97 54.8234 150.591 56.3061 151.835 57.4062C153.127 58.4586 154.873 58.9853 157.073 58.9854C159.609 58.9854 161.666 58.3394 163.244 57.0479C164.87 55.7563 165.684 54.0822 165.685 52.0254V47.2168H155.997Z" fill="white"/>
<path d="M94.2123 65.6586C91.1986 65.6586 88.5675 65.1803 86.3191 64.2235C84.0708 63.2668 82.3008 61.9512 81.0092 60.2769C79.7654 58.5548 79.0957 56.5456 79 54.2494H87.9695C88.0652 55.4932 88.6632 56.4978 89.7634 57.2632C90.9115 58.0286 92.3945 58.4113 94.2123 58.4113H97.3696C99.5701 58.4113 101.221 57.9807 102.321 57.1197C103.421 56.2586 103.971 55.0866 103.971 53.6036C103.971 52.2163 103.469 51.14 102.464 50.3746C101.508 49.5613 100.001 49.0351 97.9436 48.7959L93.0642 48.0784C88.5675 47.4565 85.2667 46.2606 83.1619 44.4906C81.057 42.7206 80.0046 40.0656 80.0046 36.5256C80.0046 32.8421 81.2484 29.9958 83.7359 27.9866C86.2235 25.9296 89.883 24.9011 94.7146 24.9011H97.4413C101.842 24.9011 105.358 25.8818 107.99 27.8431C110.621 29.8045 112.032 32.4355 112.223 35.7363H103.254C103.11 34.6839 102.512 33.8228 101.46 33.1531C100.455 32.4834 99.1157 32.1485 97.4413 32.1485H94.7146C92.6576 32.1485 91.1507 32.5312 90.194 33.2966C89.2851 34.0142 88.8306 35.0905 88.8306 36.5256C88.8306 37.8651 89.2372 38.8697 90.0505 39.5394C90.8637 40.1613 92.1792 40.6157 93.997 40.9028L99.0917 41.6203C103.78 42.29 107.224 43.5577 109.425 45.4234C111.673 47.2412 112.797 49.944 112.797 53.5319C112.797 57.3588 111.482 60.3487 108.851 62.5014C106.267 64.6062 102.44 65.6586 97.3696 65.6586H94.2123Z" fill="white"/>
<path d="M55.4395 65.7304C51.3733 65.7304 48.1682 64.654 45.8242 62.5014C43.4801 60.3487 42.3081 57.4545 42.3081 53.8188C42.3081 49.944 43.5997 46.9542 46.1829 44.8493C48.7662 42.7445 52.4257 41.6921 57.1616 41.6921H66.9922V38.3195C66.9922 36.406 66.3704 34.9231 65.1266 33.8706C63.8828 32.7704 62.1846 32.2202 60.0319 32.2202C58.0706 32.2202 56.4441 32.6508 55.1525 33.5118C53.8609 34.3729 53.0955 35.5449 52.8563 37.0279H44.102C44.5325 33.2966 46.2069 30.3307 49.1249 28.1301C52.043 25.9296 55.7744 24.8293 60.3189 24.8293C65.1505 24.8293 68.9536 26.0492 71.7281 28.4889C74.5506 30.8808 75.9618 34.1337 75.9618 38.2478V65.0128H67.2793V58.1242H65.8441L67.2793 56.1868C67.2793 59.1049 66.2029 61.425 64.0502 63.1472C61.8975 64.8693 59.0273 65.7304 55.4395 65.7304ZM58.3815 58.9853C60.9169 58.9853 62.9739 58.3395 64.5525 57.0479C66.179 55.7563 66.9922 54.082 66.9922 52.0249V47.2173H57.3052C55.4873 47.2173 54.0283 47.7435 52.928 48.7959C51.8278 49.8483 51.2776 51.2356 51.2776 52.9578C51.2776 54.8234 51.8995 56.3064 53.1433 57.4067C54.4349 58.4591 56.181 58.9853 58.3815 58.9853Z" fill="white"/>
<path d="M5.38172 65.0128L0 12.6307H7.74967L10.9069 49.2264C11.0026 50.0396 11.0744 51.0442 11.1222 52.2402C11.2179 53.3883 11.2896 54.5603 11.3375 55.7562C11.4332 56.9522 11.481 58.0046 11.481 58.9135C11.5767 58.0046 11.6723 56.9522 11.768 55.7562C11.8637 54.5603 11.9594 53.3883 12.055 52.2402C12.1986 51.0442 12.3181 50.0396 12.4138 49.2264L16.7192 12.6307H24.2536L28.2719 49.2264C28.4155 50.0396 28.5351 51.0442 28.6307 52.2402C28.7742 53.3883 28.9178 54.5603 29.0613 55.7562C29.2048 56.9522 29.3244 58.0046 29.42 58.9135C29.4679 58.0046 29.5157 56.9522 29.5636 55.7562C29.6114 54.5603 29.6592 53.3883 29.7071 52.2402C29.8027 51.0442 29.8984 50.0396 29.9941 49.2264L33.0796 12.6307H40.7575L35.0888 65.0128H25.1864L21.3116 28.2736C21.2159 27.3647 21.0963 26.3123 20.9528 25.1163C20.8571 23.8725 20.7615 22.6527 20.6658 21.4567C20.5701 20.213 20.4984 19.1606 20.4505 18.2995C20.4027 19.1606 20.307 20.213 20.1635 21.4567C20.0678 22.6527 19.9721 23.8725 19.8765 25.1163C19.7808 26.3123 19.6851 27.3647 19.5894 28.2736L15.3558 65.0128H5.38172Z" fill="white"/>
<path d="M242.323 20.5234H230.985C229.837 20.5234 228.904 20.8586 228.187 21.5283C227.517 22.1501 227.183 23.0113 227.183 24.1113V29.9238H237V29.9043H247.691V14.4248H256.733V29.9043H271.874V38.0127H256.733V53.1729C256.733 55.6604 257.953 56.9043 260.393 56.9043H269.973L268.389 65.0127H259.747C255.968 65.0127 253.001 63.9603 250.849 61.8555C248.744 59.7506 247.691 56.8562 247.691 53.1729V38.0127H242.323V38.0322H227.183V65.0127H218.213V38.0322H212.29V50.0869C212.29 54.9185 210.831 58.746 207.913 61.5684C204.995 64.3428 201.073 65.7304 196.146 65.7305C191.123 65.7305 187.176 64.3428 184.306 61.5684C181.435 58.746 180 54.9185 180 50.0869V25.5469H188.97V50.0156C188.97 52.5508 189.591 54.5121 190.835 55.8994C192.079 57.2389 193.849 57.9092 196.146 57.9092C198.394 57.9091 200.14 57.2388 201.384 55.8994C202.675 54.5122 203.32 52.5508 203.32 50.0156V29.9258H207.378V29.9238H218.213V23.9678C218.213 20.5237 219.361 17.7727 221.657 15.7158C223.953 13.659 226.992 12.6309 230.771 12.6309H242.323V20.5234Z" fill="white"/>
</svg>
