<svg height="168mm" viewBox="0 0 299 168" width="299mm" xmlns="http://www.w3.org/2000/svg"><path d="m0 0h299v168h-299z" fill="#e8e8e8"/><g transform="translate(10 10)"><path d="m0 0h66v46h-66z" fill="#f00"/><text fill="#555" font-family="'Courier New',monospace" font-size="2.3" text-anchor="middle" x="33" y="48.5">#FF0000 · C0 M100 Y100 K0</text></g><g transform="translate(81 10)"><path d="m0 0h66v46h-66z" fill="#f0f"/><text fill="#555" font-family="'Courier New',monospace" font-size="2.3" text-anchor="middle" x="33" y="48.5">#FF00FF · C0 M100 Y0 K0</text></g><g transform="translate(152 10)"><path d="m0 0h66v46h-66z" fill="#00e5ff"/><text fill="#555" font-family="'Courier New',monospace" font-size="2.3" text-anchor="middle" x="33" y="48.5">#00E5FF · C100 M10 Y0 K0</text></g><g transform="translate(223 10)"><path d="m0 0h66v46h-66z" fill="#fff"/><text fill="#555" font-family="'Courier New',monospace" font-size="2.3" text-anchor="middle" x="33" y="48.5">#FFFFFF · C0 M0 Y0 K0</text></g><g transform="translate(10 61)"><path d="m0 0h66v46h-66z" fill="#ffb800"/><text fill="#555" font-family="'Courier New',monospace" font-size="2.3" text-anchor="middle" x="33" y="48.5">#FFB800 · C0 M28 Y100 K0</text></g><g transform="translate(81 61)"><path d="m0 0h66v46h-66z" fill="#00e05a"/><text fill="#555" font-family="'Courier New',monospace" font-size="2.3" text-anchor="middle" x="33" y="48.5">#00E05A · C100 M0 Y60 K12</text></g><g transform="translate(152 61)"><path d="m0 0h66v46h-66z" fill="#5b5bff"/><text fill="#555" font-family="'Courier New',monospace" font-size="2.3" text-anchor="middle" x="33" y="48.5">#5B5BFF · C64 M64 Y0 K0</text></g><g transform="translate(223 61)"><path d="m0 0h66v46h-66z" fill="#ff4d94"/><text fill="#555" font-family="'Courier New',monospace" font-size="2.3" text-anchor="middle" x="33" y="48.5">#FF4D94 · C0 M70 Y42 K0</text></g><g transform="translate(10 112)"><path d="m0 0h66v46h-66z" fill="#c864ff"/><text fill="#555" font-family="'Courier New',monospace" font-size="2.3" text-anchor="middle" x="33" y="48.5">#C864FF · C22 M61 Y0 K0</text></g><g transform="translate(81 112)"><path d="m0 0h66v46h-66z" fill="#ffe500"/><text fill="#555" font-family="'Courier New',monospace" font-size="2.3" text-anchor="middle" x="33" y="48.5">#FFE500 · C0 M10 Y100 K0</text></g><g transform="translate(152 112)"><path d="m0 0h66v46h-66z" fill="#ff6b35"/><text fill="#555" font-family="'Courier New',monospace" font-size="2.3" text-anchor="middle" x="33" y="48.5">#FF6B35 · C0 M58 Y79 K0</text></g><g transform="translate(223 112)"><path d="m0 0h66v46h-66z" fill="#00ff94"/><text fill="#555" font-family="'Courier New',monospace" font-size="2.3" text-anchor="middle" x="33" y="48.5">#00FF94 · C100 M0 Y42 K0</text></g></svg>